<?xml version="1.0" encoding="utf-8"?>
<!-- Generator: Adobe Illustrator 24.3.0, SVG Export Plug-In . SVG Version: 6.00 Build 0)  -->
<svg version="1.1" id="Capa_1" xmlns="http://www.w3.org/2000/svg" xmlns:xlink="http://www.w3.org/1999/xlink" x="0px" y="0px"
	 viewBox="0 0 28.1 27.6" style="enable-background:new 0 0 28.1 27.6;" xml:space="preserve">
<style type="text/css">
	.st0{fill:#2E5AA3;}
</style>
<g>
	<path class="st0" d="M27.5,18.8c-0.2-0.4-0.4-0.9-0.7-1.2c-0.3-0.4-1-0.3-1.2,0.1c-0.3,0.7-0.7,1.4-1.3,2l-3.2,3.2
		c-0.3,0.3-0.7,0.3-1,0L20,22.8l-0.1-0.1c-0.3-0.3-0.3-0.7,0-1l3.2-3.2c0.7-0.7,1.2-1.7,1.3-2.7c0.1-0.3,0.1-0.7,0-1.1
		c-0.1-1.2-0.6-2.4-1.4-3.2c-0.8-0.8-1.9-1.4-3.2-1.4c-0.3,0-0.7,0-1,0c-0.5,0.1-1,0.2-1.5,0.5c-0.4,0.2-0.9,0.5-1.2,0.9
		c-0.2,0.2-0.5,0.5-0.7,0.8s-0.2,0.6,0.1,0.9l1.3,1.3l0.1,0.1c0.3,0.3,0.3,0.7,0,1l0.1,0.3c-0.3,0.3-0.7,0.3-1,0l-0.5-0.5l-3.1-3.1
		l0,0l0,0l0,0c0,0-0.1-0.2-0.3-0.3l0,0L12,11.9c-0.1-0.1-0.1-0.1-0.2-0.2c-0.4-0.4-0.8-0.7-1.2-0.9c-0.5-0.2-1-0.4-1.5-0.5
		c-0.2,0-0.5,0-0.7,0c-0.1,0-0.2,0-0.3,0c-2.5,0.1-4.5,2.1-4.6,4.6c0,0.1,0,0.2,0,0.2c0,0.2-0.1,0.3-0.2,0.5l-0.1,0.1L3,15.8
		l-0.3,0.3l-0.4,0.4c0,0,0,0-0.1,0.1S2.1,16.7,2,16.8c-0.7,0.6-1.2,1.3-1.5,2.1c-0.5,1.3-0.4,2.6,0.2,3.8c0.6,1.2,1.6,2.1,2.8,2.6
		s2.6,0.4,3.8-0.1C7.5,25.1,7.6,25,7.8,25c0.4-0.2,0.5-0.7,0.1-1.1L3,19c-0.3-0.3-0.3-0.7,0-1h0.1l0,0c0.3-0.3,0.7-0.3,1,0l5.4,5.4
		l0.5,0.5l0.5,0.5l0.3,0.3l0,0l1.4,1.4c1,1,2.6,1,3.6,0l1.4-1.4l0,0l0.3-0.3l0.5-0.5l0,0c0.3-0.3,0.7-0.3,1,0l0,0
		c0.2,0.2,0.4,0.4,0.6,0.5c0.3,0.3,0.7,0.5,1.1,0.7c1.2,0.5,2.5,0.6,3.8,0.1s2.3-1.4,2.8-2.6C27.9,21.5,28,20.1,27.5,18.8z"/>
	<path class="st0" d="M10.3,9.1L10.3,9.1c0.3,0.1,0.7,0,0.9-0.3c0.6-1,1.7-1.6,2.9-1.6s2.3,0.6,2.9,1.6c0.2,0.3,0.5,0.4,0.8,0.3l0,0
		C18.3,9,18.5,8.4,18.2,8c-0.9-1.4-2.4-2.3-4.2-2.3S10.7,6.6,9.8,8C9.6,8.4,9.8,8.9,10.3,9.1z"/>
	<path class="st0" d="M14,5L14,5c0.4,0,0.8-0.3,0.8-0.7V1.5c0-0.4-0.3-0.7-0.7-0.7l0,0c-0.4,0-0.7,0.3-0.7,0.7v2.7
		C13.3,4.6,13.6,5,14,5z"/>
	<path class="st0" d="M8.9,6.6c0.3,0.3,0.8,0.3,1.1,0l0,0c0.3-0.3,0.3-0.8,0-1.1L8.1,3.6C7.8,3.3,7.3,3.3,7,3.6l0,0
		C6.7,3.9,6.7,4.4,7,4.7L8.9,6.6z"/>
	<path class="st0" d="M18.1,6.6c0.3,0.3,0.8,0.3,1.1,0l1.9-1.9c0.3-0.3,0.3-0.8,0-1.1l0,0c-0.3-0.3-0.8-0.3-1.1,0l-1.9,1.9
		C17.8,5.9,17.8,6.3,18.1,6.6L18.1,6.6z"/>
</g>
</svg>
