<?xml version="1.0" encoding="utf-8"?>
<!-- Generator: Adobe Illustrator 24.3.0, SVG Export Plug-In . SVG Version: 6.00 Build 0)  -->
<svg version="1.1" xmlns="http://www.w3.org/2000/svg" xmlns:xlink="http://www.w3.org/1999/xlink" x="0px" y="0px"
	 viewBox="0 0 800 800" style="enable-background:new 0 0 800 800;" xml:space="preserve">
<g id="0">
	<g>
		<path style="fill:#FFFFFF;" d="M647.3,179.3c-62-62-159.7-66.5-227.2-10.4c-0.1,0.1-8.8,7.2-20.1,7.2c-11.6,0-19.8-7-20.1-7.3
			c-67.4-56.1-165-51.6-227.1,10.5c-31.9,31.9-49.4,74.2-49.4,119.3c0,45.1,17.6,87.5,48.8,118.7L348,646.4c13,15.3,32,24,52.1,24
			c20.1,0,39-8.8,52.1-24l195.2-228.6C713.1,352.1,713.1,245.1,647.3,179.3z"/>
		<path style="fill:#1F1F23;" d="M256.2,339.1c-34.1,0-65.1-21.4-77.1-53.2c-2.1-5.4,0.7-11.5,6.1-13.5c5.4-2.1,11.5,0.7,13.5,6.1
			c9,23.7,32.1,39.7,57.5,39.7c26.2,0,49.6-16.6,58.1-41.4c1.9-5.5,7.9-8.4,13.4-6.5c5.5,1.9,8.4,7.9,6.5,13.4
			C322.7,316.8,291.4,339.1,256.2,339.1z"/>
		<path style="fill:#1F1F23;" d="M561.2,339.1c-34.1,0-65.1-21.4-77.1-53.2c-2.1-5.4,0.7-11.5,6.1-13.5c5.4-2.1,11.5,0.7,13.5,6.1
			c9,23.7,32.1,39.7,57.5,39.7c26.2,0,49.6-16.6,58.1-41.4c1.9-5.5,7.9-8.4,13.4-6.5c5.5,1.9,8.4,7.9,6.5,13.4
			C627.7,316.8,596.4,339.1,561.2,339.1z"/>
		<ellipse style="fill:#1F1F23;" cx="408.6" cy="422.4" rx="61.5" ry="70.4"/>
		<path style="fill:#FFFFFF;" d="M331.2,60.4c28.7,0.2,57.3-0.6,85.9-2.6c8.1-0.6,16.2-1.2,24.3-1.9c-3.5-8.5-7.1-17.1-10.6-25.6
			c-17.1,15.1-28.3,35.2-40.5,54.1c-3.3,5.1-6.7,10-10.4,14.8c0.8-1,1.6-2,2.3-3c-4.6,5.9-9.6,11.5-15.3,16.5c-0.8,1-1.6,2-2.3,3
			c-0.5,1.2-1,2.4-1.5,3.6c-0.2,1.3-0.4,2.7-0.5,4c-0.1,2.1,0.4,4,1.3,5.8c0.4,1.3,1,2.4,1.9,3.3c0.7,1.1,1.6,2,2.7,2.7
			c2.5,2,5.8,3.4,9.1,3.2c16.5-0.7,32.9-3.6,48.8-8.2c14.3-4.1,28.1-9.5,42.1-14.6c8.4-3.1,16.9-6.1,25.5-8.8c3.7-1.2,7-3.5,9-6.9
			c1.9-3.2,2.7-8,1.5-11.6c-1.2-3.6-3.4-7.1-6.9-9c-3.5-1.8-7.7-2.7-11.6-1.5c-25.2,7.9-49.3,18.9-74.9,25.4
			c-7.1,1.8-14.4,3.3-21.7,4.2c1.3-0.2,2.7-0.4,4-0.5c-5.2,0.7-10.5,1.1-15.7,1.4c3.5,8.5,7.1,17.1,10.6,25.6
			c17.1-15.1,28.3-35.2,40.5-54.1c3.3-5.1,6.7-10,10.4-14.8c-0.8,1-1.6,2-2.3,3c4.6-5.9,9.6-11.5,15.3-16.5c0.8-1,1.6-2,2.3-3
			c0.5-1.2,1-2.4,1.5-3.6c0.2-1.3,0.4-2.7,0.5-4c0.1-2.1-0.4-4-1.3-5.8c-0.4-1.3-1-2.4-1.9-3.3c-0.7-1.1-1.6-2-2.7-2.7
			c-2.4-1.9-5.9-3.5-9.1-3.2c-28.5,2.6-57.2,4-85.8,4.4c-8.1,0.1-16.2,0.1-24.4,0.1c-3.8,0-7.9,1.7-10.6,4.4
			c-2.6,2.6-4.6,6.9-4.4,10.6c0.2,3.9,1.4,7.9,4.4,10.6C323.6,58.7,327.1,60.4,331.2,60.4L331.2,60.4z"/>
		<path style="fill:#FFFFFF;" d="M692.1,579.2l-17.4-4.7l17.2-9.9c2.9-1.7,3.9-5.4,2.2-8.3c-1.7-2.9-5.4-3.9-8.3-2.2l-17.6,10.2
			l4.7-17.5c0.9-3.2-1.1-6.6-4.3-7.4c-3.2-0.9-6.6,1.1-7.4,4.3l-7.8,29.2L635,583.5v-21.8l21.3-21.3c2.4-2.4,2.4-6.2,0-8.6
			c-2.4-2.4-6.2-2.4-8.6,0L635,544.6v-19.9c0-3.3-2.7-6.1-6.1-6.1s-6.1,2.7-6.1,6.1V545L610,532.2c-2.4-2.4-6.2-2.4-8.6,0
			c-2.4,2.4-2.4,6.2,0,8.6l21.4,21.4v21.4L604,572.6l-7.8-29.1c-0.9-3.2-4.2-5.2-7.4-4.3c-3.2,0.9-5.2,4.2-4.3,7.4l4.7,17.4
			l-17.2-9.9c-2.9-1.7-6.6-0.7-8.3,2.2c-1.7,2.9-0.7,6.6,2.2,8.3l17.6,10.2l-17.5,4.7c-3.2,0.9-5.2,4.2-4.3,7.4
			c0.7,2.7,3.2,4.5,5.8,4.5c0.5,0,1-0.1,1.6-0.2l29.2-7.8l18.5,10.7l-18.9,10.9l-29.1-7.8c-3.2-0.9-6.6,1.1-7.4,4.3
			c-0.9,3.2,1.1,6.6,4.3,7.4l17.4,4.7l-17.2,9.9c-2.9,1.7-3.9,5.4-2.2,8.3c1.1,1.9,3.2,3,5.3,3c1,0,2.1-0.3,3-0.8l17.6-10.2
			l-4.7,17.5c-0.9,3.2,1.1,6.6,4.3,7.4c0.5,0.1,1.1,0.2,1.6,0.2c2.7,0,5.1-1.8,5.8-4.5l7.8-29.2l18.5-10.7v21.8l-21.3,21.3
			c-2.4,2.4-2.4,6.2,0,8.6c1.2,1.2,2.7,1.8,4.3,1.8c1.6,0,3.1-0.6,4.3-1.8l12.7-12.7v19.9c0,3.3,2.7,6.1,6.1,6.1s6.1-2.7,6.1-6.1
			V643l12.8,12.8c2.4,2.4,6.2,2.4,8.6,0c2.4-2.4,2.4-6.2,0-8.6L635,625.9v-21.4l18.9,10.9l7.8,29.1c0.7,2.7,3.2,4.5,5.8,4.5
			c0.5,0,1-0.1,1.6-0.2c3.2-0.9,5.2-4.2,4.3-7.4l-4.7-17.4l17.2,9.9c1,0.6,2,0.8,3,0.8c2.1,0,4.1-1.1,5.3-3c1.7-2.9,0.7-6.6-2.2-8.3
			l-17.6-10.2l17.5-4.7c3.2-0.9,5.2-4.2,4.3-7.4c-0.9-3.2-4.2-5.2-7.4-4.3l-29.2,7.8L641,594l18.9-10.9l29.1,7.8
			c0.5,0.1,1.1,0.2,1.6,0.2c2.7,0,5.1-1.8,5.8-4.5C697.3,583.4,695.4,580.1,692.1,579.2z"/>
		<path style="fill:#FFFFFF;" d="M234.3,579.2l-17.4-4.7l17.2-9.9c2.9-1.7,3.9-5.4,2.2-8.3c-1.7-2.9-5.4-3.9-8.3-2.2l-17.6,10.2
			l4.7-17.5c0.9-3.2-1.1-6.6-4.3-7.4c-3.2-0.9-6.6,1.1-7.4,4.3l-7.8,29.2l-18.5,10.7v-21.8l21.3-21.3c2.4-2.4,2.4-6.2,0-8.6
			c-2.4-2.4-6.2-2.4-8.6,0l-12.7,12.7v-19.9c0-3.3-2.7-6.1-6.1-6.1c-3.3,0-6.1,2.7-6.1,6.1V545l-12.8-12.8c-2.4-2.4-6.2-2.4-8.6,0
			c-2.4,2.4-2.4,6.2,0,8.6l21.4,21.4v21.4l-18.9-10.9l-7.8-29.1c-0.9-3.2-4.2-5.2-7.4-4.3c-3.2,0.9-5.2,4.2-4.3,7.4l4.7,17.4
			l-17.2-9.9c-2.9-1.7-6.6-0.7-8.3,2.2c-1.7,2.9-0.7,6.6,2.2,8.3l17.6,10.2l-17.5,4.7c-3.2,0.9-5.2,4.2-4.3,7.4
			c0.7,2.7,3.2,4.5,5.8,4.5c0.5,0,1-0.1,1.6-0.2l29.2-7.8L159,594l-18.9,10.9l-29.1-7.8c-3.2-0.9-6.6,1.1-7.4,4.3
			c-0.9,3.2,1.1,6.6,4.3,7.4l17.4,4.7l-17.2,9.9c-2.9,1.7-3.9,5.4-2.2,8.3c1.1,1.9,3.2,3,5.3,3c1,0,2.1-0.3,3-0.8l17.6-10.2
			l-4.7,17.5c-0.9,3.2,1.1,6.6,4.3,7.4c0.5,0.1,1.1,0.2,1.6,0.2c2.7,0,5.1-1.8,5.8-4.5l7.8-29.2l18.5-10.7v21.8l-21.3,21.3
			c-2.4,2.4-2.4,6.2,0,8.6c1.2,1.2,2.7,1.8,4.3,1.8c1.6,0,3.1-0.6,4.3-1.8l12.7-12.7v19.9c0,3.3,2.7,6.1,6.1,6.1
			c3.3,0,6.1-2.7,6.1-6.1V643l12.8,12.8c2.4,2.4,6.2,2.4,8.6,0c2.4-2.4,2.4-6.2,0-8.6l-21.4-21.4v-21.4l18.9,10.9l7.8,29.1
			c0.7,2.7,3.2,4.5,5.8,4.5c0.5,0,1-0.1,1.6-0.2c3.2-0.9,5.2-4.2,4.3-7.4l-4.7-17.4l17.2,9.9c1,0.6,2,0.8,3,0.8c2.1,0,4.1-1.1,5.3-3
			c1.7-2.9,0.7-6.6-2.2-8.3l-17.6-10.2l17.5-4.7c3.2-0.9,5.2-4.2,4.3-7.4c-0.9-3.2-4.2-5.2-7.4-4.3l-29.2,7.8L183.2,594l18.9-10.9
			l29.1,7.8c0.5,0.1,1.1,0.2,1.6,0.2c2.7,0,5.1-1.8,5.8-4.5C239.5,583.4,237.5,580.1,234.3,579.2z"/>
	</g>
</g>
<g id="1">
	<g>
		<path style="fill:#C4DAEF;" d="M255.2,594.5c-41.9,0-75.9,34-75.9,75.9c0-41.9-34-75.9-75.9-75.9c41.9,0,75.9-34,75.9-75.9
			C179.3,560.6,213.3,594.5,255.2,594.5z"/>
		<path style="fill:#C4DAEF;" d="M475.9,81.5c-41.9,0-75.9,34-75.9,75.9c0-41.9-34-75.9-75.9-75.9c41.9,0,75.9-34,75.9-75.9
			C400,47.5,434,81.5,475.9,81.5z"/>
		<circle style="fill:#FBFCFD;" cx="633.7" cy="607.3" r="55.8"/>
		<path style="fill:#B4B4B4;" d="M647.3,179.3c-62-62-159.7-66.5-227.2-10.4c-0.1,0.1-8.8,7.2-20.1,7.2c-11.6,0-19.8-7-20.1-7.3
			c-67.4-56.1-165-51.6-227.1,10.5c-31.9,31.9-49.4,74.2-49.4,119.3c0,45.1,17.6,87.5,48.8,118.7L348,646.4c13,15.3,32,24,52.1,24
			c20.1,0,39-8.8,52.1-24l195.2-228.6C713.1,352.1,713.1,245.1,647.3,179.3z"/>
		<ellipse style="fill:#1F1F23;" cx="451.1" cy="424" rx="61.5" ry="24"/>
		<g>
			<g>
				<path style="fill:#1F1F23;" d="M340.9,279.5c0,43.2-35,78.2-78.2,78.2c-43.2,0-78.2-35-78.2-78.2c0-3,0.2-6,0.5-8.9
					c14,6.8,37.2,15.8,67,17.6c41.3,2.5,73.1-10.2,88.4-17.6C340.8,273.1,340.9,276.1,340.9,279.5z"/>
				<circle style="fill:#B4B4B4;" cx="303.3" cy="304.4" r="16.9"/>
			</g>
			<g>
				<path style="fill:#1F1F23;" d="M615.5,279.5c0,43.2-35,78.2-78.2,78.2c-43.2,0-78.2-35-78.2-78.2c0-3,0.2-6,0.5-8.9
					c14,6.8,37.2,15.8,67,17.6c41.3,2.5,73.1-10.2,88.4-17.6C615.3,273.1,615.5,276.1,615.5,279.5z"/>
				<circle style="fill:#B4B4B4;" cx="577.9" cy="304.4" r="16.9"/>
			</g>
		</g>
	</g>
</g>
<g id="2">
	<g>
		<path style="fill:#F6F126;" d="M527.5,48l-31.9,54.2c-34.4,5.7-66.6,20.4-94,43c-0.5,0.3-1.2,0.6-1.6,0.8
			c-0.3-0.1-0.8-0.3-1.2-0.5c-7.5-6.2-15.3-11.8-23.5-16.8l48-80.7H527.5z"/>
		<path style="fill:#B4B4B4;" d="M647.3,417.9L452.1,646.5c-13,15.2-32,24-52,24c-20,0-39-8.8-52-24l-41.6-48.7l-1-1.2l102.5-108.5
			l-101.8-0.3l36.6-62H169.1l-4,6.6l-12.9-15.1c-31.3-31.2-48.8-73.6-48.8-118.7s17.6-87.5,49.4-119.3
			c62.1-62,159.7-66.5,227.1-10.5c0.3,0.3,8.6,7.3,20.1,7.3c11.3,0,20-7.1,20.1-7.2c28.8-24,63.1-36.9,97.8-39
			c31.1-1.9,62.6,4.9,90.6,20.3c8,4.4,15.7,9.5,23.1,15.2c5.4,4.3,10.7,8.9,15.7,13.9c13.6,13.6,24.4,28.9,32.4,45.3
			C710.3,287.5,699.5,365.7,647.3,417.9z"/>
		<path style="fill:#1F1F23;" d="M468.6,479.7c-5,0-9.4-3.6-10.3-8.7c-5.5-31.4-19.6-54.2-33.7-54.2c-10.8,0-22.3,14.2-29.3,36.1
			c-1.8,5.5-7.7,8.6-13.2,6.8c-5.5-1.8-8.6-7.7-6.8-13.2c10.1-31.8,28.5-50.7,49.3-50.7c25.4,0,46.8,28.1,54.3,71.6
			c1,5.7-2.8,11.2-8.5,12.1C469.8,479.7,469.2,479.7,468.6,479.7z"/>
		<path style="fill:#F6F126;" d="M290.2,455.8H186l-64.2,105.2h81.4l-58.1,161.5l193.3-204.5l-84.7-0.2L290.2,455.8z"/>
		<g>
			<g>
				<path style="fill:#1F1F23;" d="M362.3,294c0,43.2-35,78.2-78.2,78.2c-43.2,0-78.2-35-78.2-78.2c0-3,0.2-6,0.5-8.9h155.4
					C362.2,288,362.3,291,362.3,294z"/>
				<circle style="fill:#FFFFFF;" cx="312.3" cy="315.7" r="16.9"/>
			</g>
			<g>
				<path style="fill:#1F1F23;" d="M634.7,294c0,43.2-35,78.2-78.2,78.2c-43.2,0-78.2-35-78.2-78.2c0-3,0.2-6,0.5-8.9h155.4
					C634.6,288,634.7,291,634.7,294z"/>
				<circle style="fill:#FFFFFF;" cx="584.7" cy="315.7" r="16.9"/>
			</g>
		</g>
		<path style="fill:#0090C9;" d="M554.7,661.4c-14-11.3-16.1-31.7-4.8-45.7l87-99.9c11.3-14,31.7-16.1,45.7-4.8
			c14,11.3,16.1,31.7,4.8,45.7l-87,99.9C589.1,670.5,568.6,672.7,554.7,661.4z"/>
	</g>
</g>
<g id="3">
	<g>
		<path style="fill:#82C0DF;" d="M647.3,179.3c-62-62-159.7-66.5-227.2-10.4c-0.1,0.1-8.8,7.2-20.1,7.2c-11.6,0-19.8-7-20.1-7.3
			c-67.4-56.1-165-51.6-227.1,10.5c-31.9,31.9-49.4,74.2-49.4,119.3c0,45.1,17.6,87.5,48.8,118.7L348,646.4c13,15.3,32,24,52.1,24
			c20.1,0,39-8.8,52.1-24l195.2-228.6C713.1,352.1,713.1,245.1,647.3,179.3z"/>
		<g>
			<path style="fill:#2F1802;" d="M567.8,340.4c0,18.6-6.8,35.4-17.5,46.8c-11.8-3.1-25-4.9-39-4.9c-10.9,0-21.3,1.1-31,3
				c-9.8-11.4-15.8-27.3-15.8-45c0-34.5,23.1-62.4,51.6-62.4C544.6,278,567.8,306,567.8,340.4z"/>
			<circle style="fill:#FFFFFF;" cx="521.2" cy="317.7" r="16.5"/>
		</g>
		<g>
			<path style="fill:#2F1802;" d="M347.3,340.4c0,18.6-6.8,35.4-17.5,46.8c-11.8-3.1-25-4.9-39-4.9c-10.9,0-21.3,1.1-31,3
				c-9.8-11.4-15.8-27.3-15.8-45c0-34.5,23.1-62.4,51.6-62.4C324.2,278,347.3,306,347.3,340.4z"/>
			<circle style="fill:#FFFFFF;" cx="300.8" cy="317.7" r="16.5"/>
		</g>
		<path style="fill:#1F1F23;" d="M479.5,475.7c-15.6,0-21.4-17.3-26.1-31.2c-1.6-4.7-4-12-6.2-15.5c-2.1,3.5-4.6,10.8-6.2,15.5
			c-4.7,13.9-10.5,31.2-26.1,31.2c-15.6,0-21.4-17.3-26.1-31.2c-1.6-4.7-4-12-6.1-15.5c-2.1,3.5-4.6,10.8-6.1,15.5
			c-4.7,13.9-10.5,31.2-26.1,31.2s-21.4-17.3-26.1-31.2c-1.8-5.5-4.8-14.4-7.2-16.9c-5.3-0.5-9.5-5-9.5-10.5
			c0-5.8,4.7-10.5,10.5-10.5c15.6,0,21.4,17.3,26.1,31.2c1.6,4.7,4,12,6.1,15.5c2.1-3.5,4.6-10.8,6.1-15.5
			c4.7-13.9,10.5-31.2,26.1-31.2c15.6,0,21.4,17.3,26.1,31.2c1.6,4.7,4,12,6.1,15.5c2.1-3.5,4.6-10.8,6.1-15.5
			c4.7-13.9,10.5-31.2,26.1-31.2c15.6,0,21.4,17.3,26.1,31.2c1.6,4.7,4,12,6.2,15.5c2.1-3.5,4.6-10.8,6.2-15.5
			c4.7-13.9,10.5-31.2,26.1-31.2c5.8,0,10.5,4.7,10.5,10.5c0,5.5-4.2,9.9-9.5,10.5c-2.3,2.4-5.3,11.4-7.2,16.9
			C500.9,458.4,495.1,475.7,479.5,475.7z M318.5,427.7L318.5,427.7L318.5,427.7z"/>
		<polygon style="fill:#F5F7F9;" points="400,140.5 453.7,101.5 433.2,38.5 366.9,38.5 346.4,101.5 		"/>
		<polygon style="fill:#0091C9;" points="103.4,606.5 167.2,502 231.1,606.5 167.2,670.4 		"/>
		<polygon style="fill:#0091C9;" points="567.8,606.5 631.6,502 695.4,606.5 631.6,670.4 		"/>
	</g>
</g>
<g id="4">
	<g>
		<path style="fill:#B4B4B4;" d="M647.3,417.9l-76.8,90l-93.8,109.9l-24.5,28.7c-13,15.2-32,24-52,24c-20.1,0-39-8.8-52.1-24
			l-18.4-21.6L235.7,515l-83.5-97.8c-31.3-31.2-48.8-73.6-48.8-118.7s17.6-87.5,49.4-119.3c62-62,159.7-66.5,227.1-10.5
			c0.3,0.3,8.6,7.3,20.1,7.3c11.3,0,20-7.1,20.1-7.2c67.5-56.1,165.1-51.6,227.2,10.4C713.1,245.1,713.1,352.1,647.3,417.9z"/>
		<ellipse style="fill:#1F1F23;" cx="400" cy="409.5" rx="55.4" ry="63.4"/>
		<path style="fill:#0090C9;" d="M329.6,290v334.9L235.7,515V312.4c18.5,10.1,41.2,12,62.1,3.3C311.2,310.2,322,301.1,329.6,290z"/>
		<path style="fill:#1F1F23;" d="M282.3,328.2c-34.2,0-64.3-16.4-76.8-41.8c-2.6-5.2-0.4-11.5,4.8-14.1c5.2-2.6,11.5-0.4,14.1,4.8
			c8.8,18,32.1,30.1,57.9,30.1c26.6,0,50.1-12.6,58.5-31.3c2.4-5.3,8.6-7.7,13.9-5.3c5.3,2.4,7.7,8.6,5.3,13.9
			C348.3,310.6,317,328.2,282.3,328.2z"/>
		<path style="fill:#0090C9;" d="M570.4,303.2v204.7l-93.8,109.9V308.1c11.5,6,25.4,9.6,40.3,9.6c16.8,0,32.3-4.5,44.5-11.9
			C564.5,305.1,567.5,304.2,570.4,303.2z"/>
		<path style="fill:#1F1F23;" d="M517,328.2c-16.2,0-31.8-3.7-45.2-10.8c-14.4-7.5-25.3-18.3-31.5-31.1c-2.6-5.2-0.4-11.5,4.8-14.1
			c5.2-2.6,11.5-0.4,14.1,4.8c4.2,8.6,12.2,16.3,22.4,21.7c10.4,5.5,22.7,8.4,35.5,8.4c14.2,0,28.1-3.7,39-10.4
			c9.1-5.5,15.8-12.8,19.5-20.9c2.4-5.3,8.6-7.7,13.9-5.3c5.3,2.4,7.7,8.6,5.3,13.9c-5.4,12.1-15,22.5-27.7,30.3
			C552.5,323.6,535.2,328.2,517,328.2z"/>
		<path style="fill:#0090C9;" d="M161.4,653.4c-17.9,0-32.5-14.5-32.5-32.5v-86.4c0-17.9,14.5-32.5,32.5-32.5s32.5,14.5,32.5,32.5
			v86.4C193.9,638.8,179.4,653.4,161.4,653.4z"/>
		<path style="fill:#0090C9;" d="M261.1,769.1c-17.9,0-32.5-14.5-32.5-32.5v-86.4c0-17.9,14.5-32.5,32.5-32.5
			c17.9,0,32.5,14.5,32.5,32.5v86.4C293.6,754.5,279.1,769.1,261.1,769.1z"/>
		<path style="fill:#0090C9;" d="M538.9,769.1c17.9,0,32.5-14.5,32.5-32.5v-86.4c0-17.9-14.5-32.5-32.5-32.5s-32.5,14.5-32.5,32.5
			v86.4C506.4,754.5,520.9,769.1,538.9,769.1z"/>
		<path style="fill:#0090C9;" d="M635.9,653.4c-17.9,0-32.5-14.5-32.5-32.5v-86.4c0-17.9,14.5-32.5,32.5-32.5s32.5,14.5,32.5,32.5
			v86.4C668.4,638.8,653.8,653.4,635.9,653.4z"/>
		<path style="fill:#0090C9;" d="M400,769.1c-17.9,0-32.5-14.5-32.5-32.5v-10.7c0-17.9,14.5-32.5,32.5-32.5
			c17.9,0,32.5,14.5,32.5,32.5v10.7C432.5,754.5,417.9,769.1,400,769.1z"/>
		<path style="fill:#0090C9;" d="M400,127.3c-17.9,0-32.5-14.5-32.5-32.5V84.1c0-17.9,14.5-32.5,32.5-32.5
			c17.9,0,32.5,14.5,32.5,32.5v10.7C432.5,112.8,417.9,127.3,400,127.3z"/>
	</g>
</g>
<g id="5">
	<g>
		<path style="fill:#83C1DF;" d="M647.3,179.3c-62-62-159.7-66.5-227.2-10.4c-0.1,0.1-8.8,7.2-20.1,7.2c-11.6,0-19.8-7-20.1-7.3
			c-67.4-56.1-165-51.6-227.1,10.5c-31.9,31.9-49.4,74.2-49.4,119.3c0,45.1,17.6,87.5,48.8,118.7L348,646.4c13,15.3,32,24,52.1,24
			c20.1,0,39-8.8,52.1-24l195.2-228.6C713.1,352.1,713.1,245.1,647.3,179.3z"/>
		<path style="fill:#1F1F23;" d="M344.6,328.4c0,25.8-20.9,46.7-46.7,46.7c-25.8,0-46.7-20.9-46.7-46.7c0-0.7,0-1.4,0.1-2.1
			c14.3,2.3,32,2.6,51.2-3.5c14.6-4.6,26.3-11.8,35.3-18.9C342,311,344.6,319.4,344.6,328.4z"/>
		<path style="fill:#1F1F23;" d="M269.6,338.3c-6.7,0-13.4-0.6-20.2-1.7c-15.6-2.6-27.7-7.5-35.1-11.1c-5.2-2.6-7.3-8.9-4.8-14.1
			c2.6-5.2,8.9-7.3,14.1-4.8c5,2.5,15.5,7,29.2,9.2c15.9,2.6,31.4,1.5,46.3-3.2c11.5-3.7,22.3-9.4,31.9-17.1
			c7.3-5.9,13.8-12.6,19.2-20.1c3.4-4.7,10-5.8,14.7-2.4c4.7,3.4,5.8,10,2.4,14.7c-6.5,9-14.3,17.2-23.1,24.2
			c-11.6,9.3-24.6,16.3-38.6,20.7C293.8,336.5,281.8,338.3,269.6,338.3z"/>
		<path style="fill:#1F1F23;" d="M577.9,324.5c-12.2,0-24.2-1.9-35.9-5.6c-11-3.5-21.5-8.6-31.1-15.2c-11.8-8-22.4-18.3-30.6-29.8
			c-3.4-4.7-2.3-11.3,2.4-14.7c4.7-3.4,11.3-2.3,14.7,2.4c6.9,9.5,15.7,18.1,25.4,24.7c7.9,5.4,16.5,9.6,25.6,12.5
			c14.1,4.5,28.9,5.7,43.9,3.6c11.1-1.6,22-4.9,31.7-9.6c5.2-2.6,11.5-0.4,14.1,4.8c2.6,5.2,0.4,11.5-4.8,14.1
			c-11.6,5.7-24.8,9.7-38,11.6C589.4,324.1,583.6,324.5,577.9,324.5z"/>
		<path style="fill:#1F1F23;" d="M368.4,419c-2.9,0-5.8-1.2-7.9-3.6c-3.8-4.4-3.4-11,1-14.8c7.6-6.7,16.7-12.4,26.4-16.5
			c13.2-5.6,27-8.2,41.1-7.5c9.1,0.4,18,2.1,26.6,5.1c10.5,3.7,20.6,9.3,29.2,16.3c4.5,3.7,5.2,10.3,1.5,14.8
			c-3.7,4.5-10.3,5.2-14.8,1.5c-6.7-5.5-14.6-9.9-22.9-12.8c-6.7-2.3-13.6-3.7-20.7-4c-10.9-0.5-21.6,1.5-31.9,5.9
			c-7.6,3.2-14.8,7.7-20.8,12.9C373.4,418.2,370.9,419,368.4,419z"/>
		<circle style="fill:#FFFFFF;" cx="314.3" cy="346.1" r="11.6"/>
		<path style="fill:#1F1F23;" d="M596.4,328.4c0,25.8-20.9,46.7-46.7,46.7c-25.8,0-46.8-20.9-46.8-46.7c0-13.1,5.3-24.8,14-33.3
			c7.8,5.3,17.2,10.3,28.4,13.8c18,5.7,34.8,5.9,48.5,3.9C595.4,317.7,596.4,322.9,596.4,328.4z"/>
		<circle style="fill:#FFFFFF;" cx="566.1" cy="346.1" r="11.6"/>
		<path style="fill:#005BA8;" d="M281.2,509L281.2,509c-16.4-16.4-16.4-43,0-59.4l29.7-31.7l29.7,31.7c16.4,16.4,16.4,43,0,59.4l0,0
			C324.2,525.4,297.6,525.4,281.2,509z"/>
		<path style="fill:#005BA8;" d="M515.2,481L515.2,481c-16.4-16.4-16.4-43,0-59.4l29.7-31.7l29.7,31.7c16.4,16.4,16.4,43,0,59.4l0,0
			C558.2,497.4,531.6,497.4,515.2,481z"/>
		<path style="fill:#83C1DF;" d="M548.1,692.8L548.1,692.8c-16.4-16.4-16.4-43,0-59.4l29.7-31.7l29.7,31.7c16.4,16.4,16.4,43,0,59.4
			l0,0C591,709.2,564.5,709.2,548.1,692.8z"/>
		<path style="fill:#83C1DF;" d="M370.3,128.9L370.3,128.9c-16.4-16.4-16.4-43,0-59.4L400,37.8l29.7,31.7c16.4,16.4,16.4,43,0,59.4
			l0,0C413.3,145.3,386.7,145.3,370.3,128.9z"/>
		<path style="fill:#83C1DF;" d="M611.1,570.8L611.1,570.8c-16.4-16.4-16.4-43,0-59.4l29.7-31.7l29.7,31.7c16.4,16.4,16.4,43,0,59.4
			l0,0C654.1,587.2,627.5,587.2,611.1,570.8z"/>
		<path style="fill:#83C1DF;" d="M252,692.8L252,692.8c16.4-16.4,16.4-43,0-59.4l-29.7-31.7l-29.7,31.7c-16.4,16.4-16.4,43,0,59.4
			l0,0C209,709.2,235.6,709.2,252,692.8z"/>
		<path style="fill:#83C1DF;" d="M188.9,570.8L188.9,570.8c16.4-16.4,16.4-43,0-59.4l-29.7-31.7l-29.7,31.7
			c-16.4,16.4-16.4,43,0,59.4l0,0C145.9,587.2,172.5,587.2,188.9,570.8z"/>
	</g>
</g>
<g id="6">
	<g>
		<path style="fill:#84C2E0;" d="M647.3,179.3c-62-62-159.7-66.5-227.2-10.4c-0.1,0.1-8.8,7.2-20.1,7.2c-11.6,0-19.8-7-20.1-7.3
			c-67.4-56.1-165-51.6-227.1,10.5c-31.9,31.9-49.4,74.2-49.4,119.3c0,45.1,17.6,87.5,48.8,118.7L348,646.4c13,15.3,32,24,52.1,24
			c20.1,0,39-8.8,52.1-24l195.2-228.6C713.1,352.1,713.1,245.1,647.3,179.3z"/>
		<g>
			<path style="fill:#1F1F23;" d="M383.8,392.2c-2.1,0-4.3-0.6-6.1-2c-7.1-5.1-15.9-9.3-25.4-12.1c-7.8-2.3-16.1-3.7-24.7-4.2
				c-13.4-0.7-27.1,0.9-40.6,4.8c-9.9,2.9-19.5,6.9-27.7,11.7c-5,2.9-11.4,1.2-14.4-3.8c-2.9-5-1.2-11.4,3.8-14.4
				c9.7-5.6,20.9-10.4,32.4-13.7c15.8-4.6,31.8-6.5,47.6-5.6c10.3,0.5,20.2,2.2,29.6,5.1c11.7,3.5,22.6,8.7,31.6,15.2
				c4.7,3.4,5.8,9.9,2.4,14.7C390.3,390.7,387.1,392.2,383.8,392.2z"/>
			<path style="fill:#1F1F23;" d="M383.8,387.5c-1.3,0-2.5-0.2-3.8-0.7c-10.4-4-21.2-9.8-31-16.7c-13.4-9.4-25-20.7-34.2-33.5
				c-5-6.9-9.3-14.3-12.7-21.7c-2.4-5.3-0.1-11.5,5.2-13.9c5.3-2.4,11.5-0.1,13.9,5.2c2.8,6.2,6.4,12.3,10.6,18.2
				c7.9,10.9,17.7,20.6,29.2,28.6c8.5,5.9,17.6,10.9,26.5,14.3c5.4,2.1,8.1,8.1,6,13.6C392.1,384.9,388.1,387.5,383.8,387.5z"/>
		</g>
		<g>
			<path style="fill:#1F1F23;" d="M460,392.2c-3.3,0-6.5-1.5-8.5-4.4c-3.4-4.7-2.3-11.3,2.4-14.7c9-6.4,19.9-11.7,31.6-15.2
				c9.4-2.8,19.3-4.5,29.6-5.1c15.8-0.8,31.8,1,47.6,5.6c11.5,3.3,22.7,8.1,32.4,13.7c5,2.9,6.7,9.3,3.8,14.4
				c-2.9,5-9.3,6.7-14.4,3.8c-8.2-4.8-17.8-8.8-27.7-11.7c-13.5-3.9-27.2-5.5-40.6-4.8c-8.6,0.5-16.9,1.9-24.7,4.2
				c-9.5,2.8-18.3,7-25.4,12.1C464.3,391.6,462.1,392.2,460,392.2z"/>
			<path style="fill:#1F1F23;" d="M460,387.5c-4.2,0-8.2-2.6-9.8-6.7c-2.1-5.4,0.6-11.5,6-13.6c8.9-3.4,18-8.3,26.5-14.3
				c11.5-8.1,21.4-17.7,29.2-28.6c4.2-5.8,7.8-11.9,10.6-18.2c2.4-5.3,8.6-7.6,13.9-5.2s7.6,8.6,5.2,13.9
				c-3.4,7.5-7.7,14.8-12.7,21.7c-9.3,12.8-20.8,24.1-34.2,33.6c-9.8,6.9-20.6,12.7-31,16.7C462.5,387.3,461.2,387.5,460,387.5z"/>
		</g>
		<g>
			<g>
				<ellipse style="fill:#202125;" cx="590" cy="510.5" rx="35.5" ry="57.7"/>
				<path style="fill:#1F1F23;" d="M590,576.2c-24.4,0-43.5-28.8-43.5-65.7c0-36.8,19.1-65.7,43.5-65.7s43.5,28.8,43.5,65.7
					C633.5,547.3,614.4,576.2,590,576.2z M590,460.8c-14.9,0-27.5,22.7-27.5,49.7c0,26.9,12.6,49.7,27.5,49.7s27.5-22.7,27.5-49.7
					C617.5,483.6,604.9,460.8,590,460.8z"/>
			</g>
			<path style="fill:#1F1F23;" d="M347.8,566.4c-2.5,0-4.9-1.1-6.5-3.3c-2.6-3.6-1.8-8.6,1.7-11.2c8.1-5.9,30.2-20.9,60.1-31.7
				c41.3-14.9,80.5-16.1,116.4-3.4c18.9,6.6,36.5,17.1,52.2,30.9c3.3,2.9,3.6,8,0.7,11.3c-2.9,3.3-8,3.6-11.3,0.7
				c-14.2-12.5-30-21.9-46.9-27.9c-75-26.4-147.9,22.8-161.7,32.9C351.1,565.9,349.4,566.4,347.8,566.4z"/>
			<path style="fill:#1F1F23;" d="M524.7,475.9c-39.2,0-70.9-16.9-87.4-27.9c-3.7-2.5-4.7-7.4-2.2-11.1c2.5-3.7,7.4-4.7,11.1-2.2
				c17.1,11.4,52,29.8,94.3,24.2c11.3-1.5,22.4-4.6,33.1-9.3c4-1.8,8.8,0.1,10.5,4.1c1.8,4-0.1,8.8-4.1,10.5
				c-12.1,5.3-24.7,8.8-37.4,10.5C536.5,475.5,530.5,475.9,524.7,475.9z"/>
		</g>
		<path style="fill:#F9F9FA;" d="M700.7,532.9h-97.3c-17.1,0-31-13.9-31-31s13.9-31,31-31h97.3c5.1,0,9.2-4.1,9.2-9.2
			c0-5.1-4.1-9.2-9.2-9.2c-17.1,0-31-13.9-31-31c0-17.1,13.9-31,31-31c39.3,0,71.2,31.9,71.2,71.2
			C771.9,501,739.9,532.9,700.7,532.9z"/>
		<path style="fill:#84C2E0;" d="M425.2,128.4h-87.1c-9.4,0-17-7.6-17-17s7.6-17,17-17h44.4c-5.7-2.2-10.1-7.5-10.8-14
			c-0.2-1.9-0.3-3.8-0.3-5.7c0-29.7,24.1-53.8,53.8-53.8s53.8,24.1,53.8,53.8S454.8,128.4,425.2,128.4z M394.7,94.4h30.4
			c10.9,0,19.8-8.9,19.8-19.8s-8.9-19.8-19.8-19.8c-10.9,0-19.8,8.9-19.8,19.8c0,0.7,0,1.4,0.1,2.1
			C406.3,84.5,401.7,91.7,394.7,94.4z"/>
		<path style="fill:#84C2E0;" d="M198.4,671.5h-87.1c-9.4,0-17-7.6-17-17c0-9.4,7.6-17,17-17h44.4c-5.7-2.2-10.1-7.5-10.8-14
			c-0.2-1.9-0.3-3.8-0.3-5.7c0-29.7,24.1-53.8,53.8-53.8s53.8,24.1,53.8,53.8S228.1,671.5,198.4,671.5z M168,637.5h30.4
			c10.9,0,19.8-8.9,19.8-19.8s-8.9-19.8-19.8-19.8c-10.9,0-19.8,8.9-19.8,19.8c0,0.7,0,1.4,0.1,2.1C179.6,627.7,175,634.8,168,637.5
			z"/>
	</g>
</g>
<g id="7">
	<g>
		<path style="fill:#FCFCFC;" d="M778.6,568.3c-12,18.9-32.5,30.2-54.9,30.2c0,0-108.2,0-191.2,0l136.8-160.2
			c9.2-9.3,17.4-19.4,24.5-30.1c10.4,14,18,30.1,22.3,47.3c1.8,7.3,7.9,12.6,15.3,13.5c11.1,1.3,21.8,5.6,30.8,12.2
			c8.6,6.4,15.6,14.8,20.2,24.4C792.1,525.9,790.6,549.3,778.6,568.3z"/>
		<path style="fill:#B4B4B4;" d="M647.3,417.9L452.1,646.5c-13,15.2-32,24-52.1,24c-20,0-39-8.8-52-24l-43.4-50.8c1,0,1.5,0,1.5,0
			c28,0,53.6-14.1,68.5-37.7c15-23.7,16.7-52.9,4.7-78.2c-5.7-12-14.4-22.5-25.1-30.5c-8.4-6.2-17.8-10.6-27.8-13.2
			c-8.8-26.7-25.9-50.2-48.8-66.8c-23.1-16.8-50.5-25.6-79-25.6c-3.3,0-6.7,0.1-10,0.4c-2.9,0.2-6.1,0.6-9.5,1.1
			c-22,3.2-42.5,11.6-60.1,24.6c-10.1-21.9-15.5-46-15.5-71c0-45.1,17.6-87.5,49.4-119.3c62-62,159.7-66.5,227.1-10.5
			c0.3,0.3,8.6,7.3,20.1,7.3c11.3,0,20-7.1,20.1-7.2c67.5-56.1,165.1-51.6,227.2,10.4C713.1,245.1,713.1,352.1,647.3,417.9z"/>
		<path style="fill:#1F1F23;" d="M597.2,264.6c0,14.6-5.7,27.8-14.9,37.7c-11.2-2.9-25-5.1-40.9-4.6c-15,0.4-27.9,3-38.2,6
			c-10-10-16.2-23.8-16.2-39.1c0-30.5,24.7-55.2,55.1-55.2C572.5,209.4,597.2,234.1,597.2,264.6z"/>
		<path style="fill:#1F1F23;" d="M342.3,252.8c0,31-25.1,56.1-56.1,56.1c-31,0-56.1-25.1-56.1-56.1c0-2.8,0.2-5.6,0.6-8.3h111
			C342.1,247.2,342.3,249.9,342.3,252.8z"/>
		<path style="fill:#1F1F23;" d="M607.6,316.4c-0.9,0-1.9-0.2-2.8-0.5c-6.4-2.6-13.1-4.8-19.9-6.5c-14.3-3.7-28.9-5.3-43.5-4.9
			c-13.7,0.4-27.4,2.5-40.6,6.4c-4.9,1.4-9.8,3.1-14.5,5c-3.8,1.5-8.2-0.3-9.8-4.2c-1.5-3.8,0.3-8.2,4.2-9.8
			c5.2-2.1,10.5-3.9,15.9-5.5c14.5-4.3,29.4-6.6,44.5-7c16-0.4,32,1.4,47.6,5.4c7.4,1.9,14.7,4.3,21.7,7.1c3.8,1.5,5.7,5.9,4.2,9.8
			C613.4,314.6,610.6,316.4,607.6,316.4z"/>
		<path style="fill:#1F1F23;" d="M364.3,252H217.7c-4.1,0-7.5-3.4-7.5-7.5s3.4-7.5,7.5-7.5h146.7c4.1,0,7.5,3.4,7.5,7.5
			S368.5,252,364.3,252z"/>
		<path style="fill:#1F1F23;" d="M450.8,375.2c-3.1,0-6.1-1.4-8.2-4c-6.7-8.4-14.8-15-24.1-19.7c-18.1-9.2-35.8-8.3-44.8-7
			c-5.7,0.9-11.1-3.1-11.9-8.8c-0.9-5.7,3.1-11.1,8.8-11.9c11.4-1.7,34.1-2.8,57.4,9c12,6.1,22.5,14.7,31,25.4
			c3.6,4.5,2.9,11.1-1.7,14.8C455.4,374.5,453.1,375.2,450.8,375.2z"/>
		<path style="fill:#878787;" d="M81.2,565.7c-14.7,0-28.6-7.8-36.2-20.5c-7.7-12.9-8-29.1-0.7-42.2c5.3-9.6,14-16.6,24.5-19.9
			c3.8-1.2,7.7-1.8,11.7-1.9c7.2-0.1,13.1-5.6,13.8-12.8c2.3-24.6,13.3-47.6,30.9-64.9c15.9-15.6,36-25.6,58.1-28.8
			c2.7-0.4,5.2-0.7,7.4-0.8c2.6-0.2,5.2-0.3,7.7-0.3c22.2,0,43.5,6.9,61.4,19.9c20,14.5,34.3,35.7,40.2,59.6
			c1.4,5.7,6.2,9.9,12,10.6c8.7,1,17.1,4.4,24.2,9.6c6.8,5,12.3,11.6,15.8,19.2c7.6,15.9,6.5,34.4-3,49.3
			c-9.4,14.9-25.6,23.8-43.2,23.8c0,0-224,0-224.1,0L81.2,565.7z"/>
	</g>
</g>
<g id="8">
	<g>
		<path style="fill:#29AAE1;" d="M656.7,407.7c-17.6-8.2-36.8-12.4-56.5-12.4c-3.3,0-6.7,0.1-10,0.4c-3,0.2-6.1,0.6-9.5,1.1
			c-28.4,4.2-54.3,17-74.8,37.1c-19.6,19.2-32.8,44-38,70.7c-2.1,0.5-4.2,1-6.3,1.6c-18,5.5-32.9,17.6-41.9,34
			c-12.5,22.5-12,50.2,1.3,72.2c8.2,13.6,20.5,23.9,34.9,29.7l-3.8,4.4c-13,15.2-32,24-52.1,24c-20,0-39-8.8-52-24l-101.6-119
			c7.9,0,12.7,0,12.7,0c23.6,0,45.2-11.9,57.8-31.8c12.6-20,14.1-44.6,4-66c-4.8-10.1-12.1-19-21.2-25.7c-6-4.4-12.6-7.8-19.6-10
			c-7.4-20-20.7-37.6-38.1-50.2c-18.7-13.5-40.7-20.7-63.8-20.7c-2.7,0-5.4,0.1-8,0.3c-2.4,0.2-4.9,0.5-7.7,0.9
			c-19.3,2.8-37.1,10.6-52.1,22.6c-4.6-15.4-6.9-31.6-6.9-48.2c0-45.1,17.6-87.5,49.4-119.3c62-62,159.7-66.5,227.1-10.5
			c0.3,0.3,8.6,7.3,20.1,7.3c11.3,0,20-7.1,20.1-7.2c67.5-56.1,165.1-51.6,227.2,10.4C709.8,241.7,712.9,341.4,656.7,407.7z"/>
		<path style="fill:#0071BB;" d="M482.9,617.3c-14.7,0-28.6-7.8-36.2-20.5c-7.7-12.9-8-29.1-0.7-42.2c5.3-9.6,14-16.6,24.5-19.9
			c3.8-1.2,7.7-1.8,11.7-1.9c7.2-0.1,13.1-5.6,13.8-12.8c2.3-24.6,13.3-47.6,30.9-64.9c15.9-15.6,36-25.6,58.1-28.8
			c2.7-0.4,5.2-0.7,7.4-0.8c2.6-0.2,5.2-0.3,7.7-0.3c22.2,0,43.5,6.9,61.4,19.9c20,14.5,34.3,35.7,40.2,59.6
			c1.4,5.7,6.2,9.9,12,10.6c8.7,1,17.1,4.4,24.2,9.6c6.8,5,12.3,11.6,15.8,19.2c7.6,15.9,6.5,34.4-3,49.3
			c-9.4,14.9-25.6,23.8-43.2,23.8c0,0-224,0-224.1,0L482.9,617.3z"/>
		<path style="fill:#FCFCFC;" d="M89.9,497.5c-11.1,0-21.5-5.9-27.2-15.4c-5.8-9.7-6-21.8-0.6-31.7c4-7.2,10.5-12.5,18.4-14.9
			c2.9-0.9,5.8-1.4,8.8-1.4c5.4-0.1,9.9-4.2,10.4-9.6c1.7-18.5,10-35.8,23.3-48.8c12-11.7,27.1-19.2,43.7-21.6
			c2.1-0.3,3.9-0.5,5.6-0.6c1.9-0.1,3.9-0.2,5.8-0.2c16.7,0,32.7,5.2,46.2,15c15,10.9,25.8,26.8,30.2,44.8c1.1,4.3,4.7,7.5,9.1,8
			c6.6,0.8,12.9,3.3,18.2,7.2c5.1,3.8,9.2,8.7,11.9,14.4c5.7,12,4.9,25.8-2.2,37c-7.1,11.2-19.2,17.9-32.5,17.9c0,0-168.4,0-168.4,0
			L89.9,497.5z"/>
		<path style="fill:#1F1F23;" d="M623.9,305.2c-4.4,0-8.5-2.8-10-7.2c-7.6-23.1-29.1-38.6-53.5-38.6c-24,0-45.4,15.3-53.3,38
			c-1.9,5.5-7.9,8.4-13.3,6.5c-5.5-1.9-8.4-7.9-6.5-13.3c10.7-31.2,40.1-52.1,73.1-52.1c33.4,0,63,21.3,73.4,53.1
			c1.8,5.5-1.2,11.4-6.7,13.3C626.1,305,625,305.2,623.9,305.2z"/>
		<path style="fill:#1F1F23;" d="M168.3,310.7c-0.8,0-1.6-0.1-2.4-0.3c-5.6-1.3-9.1-7-7.8-12.6c8.3-35,39.2-59.4,75.3-59.4
			c34.1,0,64.7,22.9,74.2,55.6c1.6,5.6-1.6,11.4-7.1,13c-5.6,1.6-11.4-1.6-13-7.1c-7-23.8-29.2-40.5-54.1-40.5
			c-26.2,0-48.8,17.8-54.8,43.3C177.3,307.4,173,310.7,168.3,310.7z"/>
		<path style="fill:#202125;" d="M475.7,326.9c0,29.1-35.6,73.1-79.5,73.1s-79.5-44.1-79.5-73.1s35.6-32.2,79.5-32.2
			S475.7,297.8,475.7,326.9z"/>
	</g>
</g>
<g id="9">
	<g>
		<path style="fill:#FAAF3B;" d="M647.3,417.9l-0.8,0.9c-8.2-1.5-16.5-2.3-24.9-2.3c-3.3,0-6.7,0.1-10,0.4c-3,0.2-6.1,0.6-9.5,1.1
			c-28.4,4.2-54.3,17-74.8,37.1c-19.6,19.2-32.8,44-38,70.7c-2.1,0.5-4.2,1-6.3,1.6c-18,5.5-32.9,17.6-41.9,34
			c-12.5,22.5-12,50.2,1.3,72.2c2.8,4.7,6.1,8.9,9.8,12.8l-0.1,0.1c-13,15.2-32,24-52.1,24c-20,0-39-8.8-52-24l-70.8-82.9
			c4.7-4.3,8.9-9.3,12.4-14.9c13.6-21.5,15.2-48,4.3-70.9c-5.2-10.9-13.1-20.4-22.8-27.6c-6.9-5.1-14.7-8.9-22.9-11.4
			c-8-22.7-22.8-42.6-42.4-56.8c-20.5-14.8-44.6-22.7-69.9-22.7c-2.9,0-5.9,0.1-8.8,0.3c-2.6,0.2-5.4,0.5-8.4,1
			c-1.1,0.2-2.2,0.3-3.3,0.5c-7.8-19.6-11.9-40.8-11.9-62.6c0-45.1,17.6-87.5,49.4-119.3c62-62,159.7-66.5,227.1-10.5
			c0.3,0.3,8.6,7.3,20.1,7.3c11.3,0,20-7.1,20.1-7.2c67.5-56.1,165.1-51.6,227.2,10.4C713.1,245.1,713.1,352.1,647.3,417.9z"/>
		<path style="fill:#0092CA;" d="M504.3,638.6c-14.7,0-28.6-7.8-36.2-20.5c-7.7-12.9-8-29.1-0.7-42.2c5.3-9.6,14-16.6,24.5-19.9
			c3.8-1.2,7.7-1.8,11.7-1.9c7.2-0.1,13.1-5.6,13.8-12.8c2.3-24.6,13.3-47.6,30.9-64.9c15.9-15.6,36-25.6,58.1-28.8
			c2.7-0.4,5.2-0.7,7.4-0.8c2.6-0.2,5.2-0.3,7.7-0.3c22.2,0,43.5,6.9,61.4,19.9c20,14.5,34.3,35.7,40.2,59.6
			c1.4,5.7,6.2,9.9,12,10.6c8.7,1,17.1,4.4,24.2,9.6c6.8,5,12.3,11.6,15.8,19.2c7.6,15.9,6.5,34.4-3,49.3
			c-9.4,14.9-25.6,23.8-43.2,23.8c0,0-224,0-224.1,0L504.3,638.6z"/>
		<path style="fill:#202125;" d="M360.1,269.4c0,17.4-8.3,32.8-21.2,42.6c-23.5-3.2-42.5-0.4-57.3,4.5c-16.8-9-28.2-26.7-28.2-47.1
			c0-29.5,23.9-53.4,53.4-53.4C336.3,216.1,360.1,240,360.1,269.4z"/>
		<circle style="fill:#FFFFFF;" cx="321" cy="252.6" r="20"/>
		<path style="fill:#202125;" d="M627.2,269.4c0,19.1-10.1,35.9-25.2,45.4c-7.6-1-15.9-1.7-24.9-1.7c-11.1,0-21.3,0.9-30.3,2.3
			c-15.7-9.3-26.3-26.4-26.3-46c0-29.5,23.9-53.4,53.4-53.4C603.3,216.1,627.2,240,627.2,269.4z"/>
		<circle style="fill:#FFFFFF;" cx="588.1" cy="252.6" r="20"/>
		<path style="fill:#1F1F23;" d="M241.8,350.4c-2,0-4-0.7-5.7-2c-3.8-3.1-4.5-8.7-1.4-12.6c0.6-0.7,14.9-18.2,44.1-27.9
			c18.7-6.2,39.4-7.8,61.3-4.9c9.3,1.3,19,3.4,28.7,6.3c4.8,1.4,7.5,6.4,6,11.2c-1.4,4.8-6.4,7.5-11.2,6c-8.8-2.6-17.6-4.5-26-5.7
			c-19.2-2.6-37.1-1.2-53.3,4.1c-23.9,7.9-35.6,22-35.7,22.1C247,349.3,244.4,350.4,241.8,350.4z"/>
		<path style="fill:#1F1F23;" d="M523.9,329.5c-3.9,0-7.5-2.6-8.6-6.5c-1.4-4.8,1.4-9.8,6.2-11.1c7.8-2.2,15.9-4,23.9-5.3
			c10.5-1.6,21.2-2.5,31.7-2.4c8.7,0,17.5,0.6,26.1,1.8c8.9,1.2,17.8,3,26.4,5.4c4.8,1.3,7.6,6.3,6.3,11.1
			c-1.3,4.8-6.3,7.6-11.1,6.3c-7.9-2.2-16-3.8-24.1-4.9c-7.9-1.1-15.8-1.6-23.7-1.6c-9.5,0-19.3,0.7-28.9,2.2
			c-7.3,1.2-14.7,2.8-21.8,4.8C525.6,329.4,524.7,329.5,523.9,329.5z"/>
		<path style="fill:#1F1F23;" d="M425.2,446.5c-8.2,0-16.7-0.8-25.6-2.6c-75.7-15.5-101.7-90-102.8-93.2c-1.9-5.5,1.1-11.5,6.6-13.3
			c5.5-1.9,11.5,1.1,13.3,6.6c0.2,0.7,23.1,66.3,87.1,79.4c44.1,9,79.5-12.5,89.3-19.3c4.8-3.3,11.3-2.1,14.6,2.6
			c3.3,4.8,2.1,11.3-2.6,14.6C495.5,427.9,465.2,446.5,425.2,446.5z"/>
		<path style="fill:#FAAF3B;" d="M400,146.5c-9.4,0-17-7.6-17-17V35.8c0-9.4,7.6-17,17-17s17,7.6,17,17v93.8
			C417,138.9,409.4,146.5,400,146.5z"/>
		<path style="fill:#FAAF3B;" d="M673.3,156.8c-4.4,0-8.7-1.7-12-5c-6.6-6.6-6.6-17.4,0-24l62-62c6.6-6.6,17.4-6.6,24,0
			c6.6,6.6,6.6,17.4,0,24l-62,62C682,155.1,677.7,156.8,673.3,156.8z"/>
		<path style="fill:#FAAF3B;" d="M754.5,443.7c-2.3,0-4.6-0.5-6.8-1.4l-47-20.4c-8.6-3.7-12.6-13.8-8.8-22.4
			c3.7-8.6,13.7-12.6,22.4-8.8l47,20.4c8.6,3.7,12.6,13.8,8.8,22.4C767.3,439.9,761,443.7,754.5,443.7z"/>
		<path style="fill:#FAAF3B;" d="M126.8,156.8c-4.4,0-8.7-1.7-12-5l-62-62c-6.6-6.6-6.6-17.4,0-24c6.6-6.6,17.4-6.6,24,0l62,62
			c6.6,6.6,6.6,17.4,0,24C135.5,155.1,131.1,156.8,126.8,156.8z"/>
		<path style="fill:#FAAF3B;" d="M191.4,675.3c-4.4,0-8.7-1.7-12-5c-6.6-6.6-6.6-17.4,0-24l62-62c6.6-6.6,17.4-6.6,24,0
			c6.6,6.6,6.6,17.4,0,24l-62,62C200.1,673.6,195.8,675.3,191.4,675.3z"/>
		<path style="fill:#FFFFFF;" d="M35.9,552.9c-12.5,0-24.3-6.7-30.8-17.4c-6.6-11-6.8-24.7-0.6-35.9c4.5-8.2,11.9-14.2,20.9-16.9
			c3.3-1,6.6-1.5,9.9-1.6c6.1-0.1,11.2-4.8,11.8-10.9c2-20.9,11.3-40.6,26.3-55.3c13.6-13.3,30.7-21.8,49.5-24.5
			c2.3-0.3,4.4-0.6,6.3-0.7c2.2-0.2,4.4-0.2,6.6-0.2c18.9,0,37,5.9,52.3,17c17,12.3,29.2,30.4,34.2,50.8c1.2,4.9,5.3,8.5,10.3,9.1
			c7.4,0.9,14.6,3.7,20.6,8.2c5.8,4.3,10.4,9.9,13.5,16.3c6.5,13.6,5.5,29.3-2.5,42c-8,12.7-21.8,20.2-36.8,20.2
			c0,0-190.7,0-190.8,0L35.9,552.9z"/>
	</g>
</g>
<g id="10">
	<g>
		<path style="fill:#FAAF3B;" d="M647.3,179.3c-62-62-159.7-66.5-227.2-10.4c-0.1,0.1-8.8,7.2-20.1,7.2c-11.6,0-19.8-7-20.1-7.3
			c-67.4-56.1-165-51.6-227.1,10.5c-31.9,31.9-49.4,74.2-49.4,119.3c0,45.1,17.6,87.5,48.8,118.7L348,646.4c13,15.3,32,24,52.1,24
			c20.1,0,39-8.8,52.1-24l195.2-228.6C713.1,352.1,713.1,245.1,647.3,179.3z"/>
		<path style="fill:#FAAF3B;" d="M400,146.5c-9.4,0-17-7.6-17-17V35.8c0-9.4,7.6-17,17-17s17,7.6,17,17v93.8
			C417,138.9,409.4,146.5,400,146.5z"/>
		<path style="fill:#FAAF3B;" d="M400,770.9c-9.4,0-17-7.6-17-17v-56.3c0-9.4,7.6-17,17-17s17,7.6,17,17v56.3
			C417,763.3,409.4,770.9,400,770.9z"/>
		<g>
			<path style="fill:#FAAF3B;" d="M673.3,156.8c-4.4,0-8.7-1.7-12-5c-6.6-6.6-6.6-17.4,0-24l62-62c6.6-6.6,17.4-6.6,24,0
				c6.6,6.6,6.6,17.4,0,24l-62,62C682,155.1,677.6,156.8,673.3,156.8z"/>
			<path style="fill:#FAAF3B;" d="M126.7,156.8c-4.4,0-8.7-1.7-12-5l-62-62c-6.6-6.6-6.6-17.4,0-24c6.6-6.6,17.4-6.6,24,0l62,62
				c6.6,6.6,6.6,17.4,0,24C135.4,155.1,131.1,156.8,126.7,156.8z"/>
		</g>
		<path style="fill:#1F1F23;" d="M228,373.7c-1.9,0-3.8-0.6-5.4-1.8c-4-3-4.8-8.6-1.8-12.6c6.3-8.4,17.4-20.2,34.4-28.8
			c6-3,12.3-5.4,18.9-7.2c11.5-3,23.4-3.9,35.2-2.6c14.2,1.5,25.3,5.8,32.2,9c4.5,2.1,6.4,7.5,4.2,12c-2.1,4.5-7.5,6.4-12,4.2
			c-5.6-2.7-14.7-6.1-26.4-7.4c-9.7-1.1-19.3-0.3-28.7,2.1c-5.3,1.4-10.5,3.4-15.3,5.8c-14.7,7.4-24,17.9-28.2,23.5
			C233.5,372.4,230.8,373.7,228,373.7z"/>
		<path style="fill:#1F1F23;" d="M581.4,362.7c-2.2,0-4.5-0.8-6.2-2.5c-6.2-6-13.8-11.1-21.8-14.9c-8.2-3.9-16.9-6.3-25.9-7.2
			c-7-0.7-14-0.4-20.9,0.8c-15.6,2.7-27.1,9.4-32.6,13.2c-4.1,2.8-9.7,1.8-12.5-2.3c-2.8-4.1-1.8-9.7,2.3-12.5
			c6.7-4.6,20.7-12.9,39.8-16.2c8.5-1.5,17.2-1.8,25.8-0.9c11,1.1,21.7,4,31.7,8.8c9.8,4.6,19,10.9,26.6,18.2
			c3.6,3.4,3.7,9.1,0.3,12.7C586.1,361.8,583.7,362.7,581.4,362.7z"/>
		<path style="fill:#202125;" d="M327.2,289.9c0,16-7.3,30.3-18.8,39.7c-9.3-1-20.2-0.7-32,2.4c-6.3,1.7-12,3.9-17.1,6.5
			c-20.2-6.9-34.8-26-34.8-48.6c0-28.4,23-51.3,51.3-51.3C304.2,238.6,327.2,261.6,327.2,289.9z"/>
		<circle style="fill:#FFFFFF;" cx="290" cy="279.8" r="18.1"/>
		<path style="fill:#202125;" d="M588.3,289.9c0,21.2-12.9,39.4-31.2,47.2c-7.9-3.7-17.6-6.8-28.8-8c-8.5-0.8-16.3-0.4-23.4,0.8
			c-11.8-9.4-19.3-23.9-19.3-40.1c0-28.4,23-51.3,51.3-51.3C565.4,238.6,588.3,261.6,588.3,289.9z"/>
		<circle style="fill:#FFFFFF;" cx="551.2" cy="279.8" r="18.1"/>
		<path style="fill:#202125;" d="M338.9,375c-11.3,1.8-18.7,12.9-16,24c9.3,37.8,43.4,65.9,84.1,65.9c40.7,0,74.8-28.1,84.1-65.9
			c2.7-11.1-4.6-22.2-15.9-24c-20.4-3.2-44.1-5.5-70.5-5.3C380.2,369.8,358.1,372,338.9,375z"/>
		<path style="fill:#FAAF3B;" d="M458.5,392.7c-0.8,3.2-1.9,6.3-3.2,9.3c-14.2,2-30.4,3.3-48.2,3c-18.4-0.3-34.9-2.2-49.2-4.7
			c-1-2.4-1.8-4.9-2.5-7.5c-0.3-1.3,0.2-2.2,0.5-2.7c0.4-0.6,1.1-1.3,2.3-1.5c15.5-2.4,31.4-3.7,47.1-3.8c0.5,0,1.1,0,1.6,0
			c16.3,0,32.7,1.3,48.8,3.8c1.2,0.2,1.9,0.9,2.2,1.4C458.3,390.4,458.8,391.4,458.5,392.7z"/>
		<path style="fill:#FAAF3B;" d="M754.1,444.5c-2.3,0-4.6-0.5-6.8-1.4l-47-20.4c-8.6-3.7-12.6-13.8-8.8-22.4
			c3.7-8.6,13.7-12.6,22.4-8.8l47,20.4c8.6,3.7,12.6,13.8,8.8,22.4C766.9,440.7,760.7,444.5,754.1,444.5z"/>
		<path style="fill:#FAAF3B;" d="M45.9,444.5c-6.6,0-12.8-3.8-15.6-10.2c-3.7-8.6,0.2-18.6,8.8-22.4l47-20.4
			c8.6-3.7,18.6,0.2,22.4,8.8c3.7,8.6-0.2,18.6-8.8,22.4l-47,20.4C50.4,444.1,48.1,444.5,45.9,444.5z"/>
		<path style="fill:#FAAF3B;" d="M674.5,667c-4.8,0-9.6-2-13-6l-79-93c-6.1-7.2-5.2-17.9,1.9-24c7.2-6.1,17.9-5.2,24,1.9l79,93
			c6.1,7.2,5.2,17.9-1.9,24C682.3,665.7,678.4,667,674.5,667z"/>
		<path style="fill:#FAAF3B;" d="M125.5,667c-3.9,0-7.8-1.3-11-4c-7.2-6.1-8-16.8-1.9-24l79-93c6.1-7.2,16.8-8,24-1.9
			c7.2,6.1,8,16.8,1.9,24l-79,93C135.1,665,130.4,667,125.5,667z"/>
	</g>
</g>
</svg>
