<?xml version="1.0" encoding="utf-8"?>
<!-- Generator: Adobe Illustrator 24.3.0, SVG Export Plug-In . SVG Version: 6.00 Build 0)  -->
<svg version="1.1" xmlns="http://www.w3.org/2000/svg" xmlns:xlink="http://www.w3.org/1999/xlink" x="0px" y="0px"
	 viewBox="0 0 660.8 471" style="enable-background:new 0 0 660.8 471;" xml:space="preserve">
<g id="10">
	<g>
		<path style="fill:#DFAB3A;" d="M125.5,228.7c-19.7-20.4-30.6-47.2-30.6-75.6c0-60,48.8-108.9,108.9-108.9
			c28.4,0,55.3,10.9,75.7,30.7c21.4,20.7,33.1,48.4,33.1,78.2c0,9.8,7.9,17.7,17.7,17.7s17.7-7.9,17.7-17.7
			c0-29.8,11.8-57.5,33.1-78.2c20.4-19.8,47.3-30.7,75.7-30.7c60,0,108.9,48.8,108.9,108.9c0,28.4-10.9,55.3-30.6,75.6L330.4,433.6
			L125.5,228.7z"/>
	</g>
	<g>
		<path style="fill:#DFAB3A;" d="M330.4,5.8c-12,0-21.7,9.7-21.7,21.7v52.9c0,12,9.7,21.7,21.7,21.7s21.7-9.7,21.7-21.7V27.4
			C352.1,15.5,342.4,5.8,330.4,5.8z M318.7,27.4L318.7,27.4c0-0.6,0-1.2,0.1-1.8C318.8,26.2,318.7,26.8,318.7,27.4z M342.1,27.4
			c0-0.6,0-1.2-0.1-1.8C342,26.2,342.1,26.8,342.1,27.4L342.1,27.4z"/>
	</g>
	<g>
		<path style="fill:#DFAB3A;" d="M100.8,196.7H47.9c-12,0-21.7,9.7-21.7,21.7S35.9,240,47.9,240h52.9c12,0,21.7-9.7,21.7-21.7
			S112.8,196.7,100.8,196.7z"/>
	</g>
	<g>
		<path style="fill:#DFAB3A;" d="M349.1,329.6c-5.8,0-11.2,2.3-15.3,6.3l-37.4,37.4c-4.1,4.1-6.3,9.5-6.3,15.3s2.3,11.2,6.3,15.3
			c4.1,4.1,9.5,6.3,15.3,6.3c5.8,0,11.2-2.3,15.3-6.3l37.4-37.4c4.1-4.1,6.3-9.5,6.3-15.3c0-5.8-2.3-11.2-6.3-15.3
			C360.3,331.9,354.9,329.6,349.1,329.6z M342.7,341.6c0.8-0.5,1.6-0.9,2.4-1.2C344.3,340.7,343.5,341.1,342.7,341.6z M346.9,339.9
			c0.7-0.1,1.5-0.2,2.2-0.2h0C348.4,339.6,347.6,339.7,346.9,339.9z"/>
	</g>
	<g>
		<path style="fill:#DFAB3A;" d="M330.4,370c-12,0-21.7,9.7-21.7,21.7v52.9c0,12,9.7,21.7,21.7,21.7s21.7-9.7,21.7-21.7v-52.9
			C352.1,379.8,342.4,370,330.4,370z"/>
	</g>
	<g>
		<path style="fill:#DFAB3A;" d="M327,336c-4.1-4.1-9.5-6.3-15.3-6.3c-5.8,0-11.2,2.3-15.3,6.3c-4.1,4.1-6.3,9.5-6.3,15.3
			s2.3,11.2,6.3,15.3l37.4,37.4c4.1,4.1,9.5,6.3,15.3,6.3c5.8,0,11.2-2.3,15.3-6.3c4.1-4.1,6.3-9.5,6.3-15.3
			c0-5.8-2.3-11.2-6.3-15.3L327,336z"/>
	</g>
	<g>
		<path style="fill:#DFAB3A;" d="M77.8,13c-4.1-4.1-9.5-6.3-15.3-6.3S51.2,8.9,47.1,13c-4.1,4.1-6.3,9.5-6.3,15.3s2.3,11.2,6.3,15.3
			l37.4,37.4c4.1,4.1,9.5,6.3,15.3,6.3c5.8,0,11.2-2.3,15.3-6.3c4.1-4.1,6.3-9.5,6.3-15.3c0-5.8-2.3-11.2-6.3-15.3L77.8,13z
			 M62.5,16.7c0.3,0,0.6,0,0.8,0C63,16.7,62.7,16.7,62.5,16.7c-0.3,0-0.6,0-0.8,0C61.9,16.7,62.2,16.7,62.5,16.7z M99.9,77.5
			c-0.1,0-0.1,0-0.2,0c0.5,0,0.9,0,1.4-0.1C100.7,77.4,100.3,77.5,99.9,77.5z M108.1,74c-0.4,0.4-0.7,0.7-1.1,1
			C107.4,74.7,107.8,74.4,108.1,74c0.5-0.5,0.9-1,1.3-1.6C109.1,73,108.6,73.5,108.1,74z"/>
	</g>
	<g>
		<path style="fill:#DFAB3A;" d="M601.6,87.9L639,50.5c4.1-4.1,6.3-9.5,6.3-15.3c0-5.8-2.3-11.2-6.3-15.3c-4.1-4.1-9.5-6.3-15.3-6.3
			c-5.8,0-11.2,2.3-15.3,6.3l-37.4,37.4c-4.1,4.1-6.3,9.5-6.3,15.3c0,5.8,2.3,11.2,6.3,15.3c4.1,4.1,9.5,6.3,15.3,6.3
			C592,94.3,597.5,92,601.6,87.9z"/>
	</g>
	<g>
		<path style="fill:#DFAB3A;" d="M520.8,343.7l37.4,37.4c4.1,4.1,6.3,9.5,6.3,15.3c0,5.8-2.3,11.2-6.3,15.3
			c-4.1,4.1-9.5,6.3-15.3,6.3c-5.8,0-11.2-2.3-15.3-6.3l-37.4-37.4c-4.1-4.1-6.3-9.5-6.3-15.3c0-5.8,2.3-11.2,6.3-15.3
			c4.1-4.1,9.5-6.3,15.3-6.3C511.3,337.4,516.7,339.7,520.8,343.7z"/>
	</g>
	<g>
		<path style="fill:#DFAB3A;" d="M140,343.7l-37.4,37.4c-4.1,4.1-6.3,9.5-6.3,15.3c0,5.8,2.3,11.2,6.3,15.3
			c4.1,4.1,9.5,6.3,15.3,6.3c5.8,0,11.2-2.3,15.3-6.3l37.4-37.4c4.1-4.1,6.3-9.5,6.3-15.3c0-5.8-2.3-11.2-6.3-15.3
			c-4.1-4.1-9.5-6.3-15.3-6.3C149.6,337.4,144.1,339.7,140,343.7z"/>
	</g>
	<g>
		<path style="fill:#DFAB3A;" d="M639.2,196.7h-52.9c-12,0-21.7,9.7-21.7,21.7s9.7,21.7,21.7,21.7h52.9c12,0,21.7-9.7,21.7-21.7
			S651.1,196.7,639.2,196.7z"/>
	</g>
</g>
<g id="9">
	<g>
		<g>
			<path style="fill:#DFAB3B;" d="M304,94c-5.7,0-10.3-4.6-10.3-10.3V32.8c0-5.7,4.6-10.3,10.3-10.3c5.7,0,10.3,4.6,10.3,10.3v50.9
				C314.3,89.4,309.7,94,304,94z"/>
		</g>
		<g>
			<path style="fill:#DFAB3B;" d="M129.9,105.8c-2.6,0-5.3-1-7.3-3L99.5,79.6c-4-4-4-10.5,0-14.5c4-4,10.5-4,14.5,0l23.2,23.2
				c4,4,4,10.5,0,14.5C135.2,104.8,132.6,105.8,129.9,105.8z"/>
		</g>
		<g>
			<path style="fill:#DFAB3B;" d="M477.6,106.3c-2.6,0-5.3-1-7.3-3c-4-4-4-10.5,0-14.5L494.1,65c4-4,10.5-4,14.5,0
				c4,4,4,10.5,0,14.5l-23.7,23.7C482.8,105.3,480.2,106.3,477.6,106.3z"/>
		</g>
		<g>
			<path style="fill:#DFAB3B;" d="M300.8,345c-9.7-10.2-22.2-17.3-35.9-20.3c-7.6-24.8-23.2-46.6-44.3-61.9
				c-20.6-15-45-22.9-70.5-22.9c-3,0-5.9,0.1-8.9,0.3c-2.1,0.2-4.3,0.4-6.4,0.7c-4.8-10.6-7.3-22.3-7.3-34
				c0-45.8,37.3-83.1,83.1-83.1c21.7,0,42.2,8.3,57.8,23.4c14,13.5,22.6,31,24.7,50.1c0.6,5.5,5.1,9.6,10.6,9.6h0.4
				c5.5,0,10-4.2,10.6-9.6c2.2-19,10.8-36.5,24.7-50.1c15.6-15.1,36.1-23.4,57.8-23.4c45.8,0,83.1,37.3,83.1,83.1
				c0,2.1-0.1,4.1-0.2,6.2c-4-0.3-7.9-0.5-11.9-0.5c-3.7,0-7.4,0.1-11,0.4c-35.2,2.6-68.4,17.7-93.6,42.4
				c-23.1,22.7-38.3,52.3-43.1,84.2C313.8,340.5,307.1,342.4,300.8,345z"/>
		</g>
		<path style="fill:#85C2E1;" d="M330.9,471c-16,0-31.3-7-41.8-18.9c8.1-5.4,14.9-12.5,20.2-20.8c13-20.6,14.6-46,4.1-68.1
			c-0.1-0.3-0.3-0.6-0.4-0.9c5.5-1.9,11.2-2.9,17-3l9.2-0.2l0.9-9.1c2.9-30.3,16.4-58.7,38.1-80c21.7-21.3,50.4-34.3,80.8-36.5
			c3.2-0.2,6.4-0.4,9.5-0.4c6.4,0,12.9,0.5,19.2,1.4c20.4,3.1,39.9,11.1,56.6,23.1c24.6,17.9,42.2,44,49.5,73.5l1.7,6.9l7.1,0.8
			c22.7,2.7,42.1,16.7,51.9,37.3c9.8,20.7,8.4,44.5-3.8,63.8c-12.2,19.3-33.1,30.8-56,30.8c0,0-250.1,0-250.1,0l0-0.2l-12.7,0.2
			C331.6,471,331.2,471,330.9,471z"/>
		<path style="fill:#FFFFFF;" d="M41.7,443.7c-14.6,0-28.3-7.8-35.8-20.3c-7.7-12.8-8-28.8-0.7-41.8c7.2-13,20.9-21.3,35.8-21.5
			l9.2-0.2l0.9-9.1c2.2-23.4,12.7-45.3,29.4-61.8c13.9-13.6,31.4-22.8,50.5-26.6c4-0.8,8-1.3,11.8-1.6c2.4-0.2,4.9-0.3,7.4-0.3
			c21.1,0,41.3,6.6,58.4,19c19,13.8,32.6,33.9,38.2,56.7l1.7,6.9l7.1,0.8c13.7,1.6,26.2,8.9,34.3,20c1.9,2.6,3.5,5.3,4.9,8.2
			c7.4,15.6,6.3,33.6-2.9,48.2c-5.3,8.4-12.9,15-22.1,19c-6.4,2.8-13.2,4.3-20.2,4.3l-207.1,0L41.7,443.7z"/>
	</g>
</g>
<g id="8">
	<g>
		<path style="fill:#24B2F2;" d="M296.5,376.7c4.6-15.8,3.3-33-4-48.3c-9-18.8-25.6-32.3-45.6-37.1c-7.5-23.1-22.1-43.4-41.9-57.7
			c-19.7-14.3-43-21.9-67.4-21.9c-2.8,0-5.7,0.1-8.5,0.3c-6.8,0.5-13.6,1.6-20.1,3.3c-0.4-3.4-0.5-6.9-0.5-10.4
			c0-54.4,44.3-98.7,98.7-98.7c25.8,0,50.2,9.9,68.6,27.8c19.4,18.7,30,43.9,30,70.9c0,6.7,5.5,12.2,12.2,12.2
			c6.7,0,12.2-5.5,12.2-12.2c0-27,10.7-52.1,30-70.9c18.5-17.9,42.9-27.8,68.7-27.8c54.4,0,98.7,44.3,98.7,98.7
			c0,10.4-1.6,20.5-4.7,30.3c-12.7-3.7-25.9-5.5-39.2-5.5c-3.5,0-7,0.1-10.5,0.4c-33.5,2.5-65.1,16.8-89.1,40.3
			c-21.5,21.1-35.8,48.6-40.7,78.2C324.7,351.6,307.9,361.7,296.5,376.7z"/>
		<path style="fill:#85C2E1;" d="M355.3,471c-10.4,0-20.5-3.2-29-9.4c-5.5-4-10-8.9-13.5-14.6c-9.1-15.1-9.4-34.1-0.9-49.5
			c8.5-15.4,24.8-25.2,42.4-25.5c6.2-0.1,11.3-4.9,11.9-11.1c2.6-27.7,15-53.7,34.8-73.1c19.9-19.5,46.1-31.3,73.8-33.4
			c2.9-0.2,5.8-0.3,8.7-0.3c14.4,0,28.6,2.6,42,7.7c9.7,3.7,18.8,8.6,27.2,14.7c22.5,16.3,38.6,40.2,45.3,67.2
			c1.2,4.9,5.4,8.6,10.4,9.2c20.3,2.4,37.7,14.9,46.5,33.4c8.8,18.5,7.5,39.8-3.4,57.1C640.7,460.7,622,471,601.5,471
			c0,0-245.3,0-245.3,0L355.3,471z"/>
		<path style="fill:#FFFFFF;" d="M36.4,401.9c-12.7,0-24.7-6.8-31.2-17.7c-6.7-11.1-6.9-25.1-0.6-36.4c6.3-11.4,18.3-18.5,31.2-18.8
			c6.2-0.1,11.3-4.9,11.9-11.1c2-21.2,11.5-41.1,26.7-56.1c8.5-8.4,18.5-14.9,29.6-19.3c8.6-3.5,17.7-5.6,27-6.3
			c2.2-0.2,4.5-0.2,6.7-0.2c19.2,0,37.5,5.9,53,17.2c17.3,12.5,29.6,30.8,34.7,51.5c1.2,4.9,5.4,8.6,10.4,9.2
			c15.1,1.8,28.1,11.1,34.6,24.9c6.5,13.8,5.6,29.7-2.6,42.5c-4.5,7.2-11,12.8-18.7,16.4c-5.9,2.7-12.1,4.1-18.6,4.1
			c0,0-193.4,0-193.5,0L36.4,401.9z"/>
	</g>
</g>
<g id="7">
	<g>
		<path style="fill:#868686;" d="M486.8,347.4c-5.7-3-11.7-5.2-18-6.8c-8.8-27.2-26.1-51.1-49.3-68c-23.2-16.8-50.7-25.7-79.4-25.7
			c-3.3,0-6.7,0.1-10,0.4c-0.7,0.1-1.5,0.1-2.2,0.2c-10-9.2-22.1-15.7-35.3-18.9c-8.8-27.2-26.1-51.1-49.3-68
			c-22.7-16.5-49.5-25.4-77.6-25.7c-0.2-2.7-0.3-5.3-0.3-8c0-64.1,52.2-116.3,116.3-116.3c30.4,0,59.1,11.6,80.9,32.7
			c22.8,22.1,35.4,51.7,35.4,83.5c0,7.9,6.4,14.4,14.4,14.4c7.9,0,14.4-6.4,14.4-14.4c0-31.8,12.6-61.4,35.4-83.5
			c21.8-21.1,50.5-32.8,80.9-32.8c64.1,0,116.3,52.2,116.3,116.3c0,30.3-11.6,59-32.7,80.8L486.8,347.4z"/>
		<path style="fill:#B1B1B1;" d="M44.6,358.9c-15,0-29.1-8-36.8-20.8C-0.1,325-0.4,308.6,7,295.2c7.4-13.4,21.5-21.9,36.8-22.1
			c7.3-0.1,13.4-5.7,14.1-13c2.4-25,13.5-48.5,31.5-66c17.5-17.1,40.6-27.8,65-30l1-0.1c0.2,0,0.5-0.1,0.7-0.1
			c2.6-0.2,5.3-0.3,7.9-0.3c22.6,0,44.2,7,62.5,20.3c20.3,14.7,34.9,36.3,40.9,60.7c1.4,5.8,6.3,10.1,12.3,10.8c3,0.4,5.9,1,8.8,1.8
			c-15.9,6.6-30.4,16.1-42.9,28.4c-20,19.6-33.3,44.9-38.3,72.2c-1.7,0.3-3.5,0.7-5.2,1.2c0,0-156.4,0-156.5,0L44.6,358.9z"/>
		<path style="fill:#D9D9D9;" d="M220.8,471c-15,0-29.1-8-36.8-20.8c-7.9-13.1-8.2-29.6-0.8-42.9c5.4-9.7,14.3-16.9,24.9-20.2
			c3.9-1.2,7.9-1.8,11.9-1.9c7.3-0.1,13.4-5.7,14.1-13c2.4-25,13.5-48.5,31.5-66c16.2-15.9,36.6-26,59.1-29.3
			c2.8-0.4,5.2-0.7,7.5-0.9c2.6-0.2,5.3-0.3,7.9-0.3c22.6,0,44.2,7,62.5,20.3c20.3,14.7,34.9,36.3,40.9,60.7
			c1.4,5.8,6.3,10.1,12.3,10.8c8.9,1.1,17.4,4.4,24.7,9.8c6.9,5.1,12.5,11.8,16.1,19.5c7.7,16.2,6.6,35-3,50.1
			c-9.6,15.1-26,24.2-43.9,24.2c0,0-227.8,0-227.9,0L220.8,471z"/>
	</g>
</g>
<g id="6">
	<g>
		<path style="fill:none;stroke:#FBFFFF;stroke-width:28;stroke-linecap:round;stroke-miterlimit:10;" d="M78.9,93.8"/>
		<path style="fill:#99CFE7;" d="M259.6,466.1h-161c-42.5,0-77-34.6-77-77s34.6-77,77-77s77,34.6,77,77c0,2.7-0.1,5.5-0.4,8.2
			c-1.2,11.1-11.2,19.2-22.3,18c-11.1-1.2-19.2-11.2-18-22.3c0.1-1.3,0.2-2.6,0.2-3.9c0-20.1-16.4-36.5-36.5-36.5
			S62.1,369,62.1,389.1c0,20.1,16.4,36.5,36.5,36.5h161c11.2,0,20.3,9.1,20.3,20.3S270.8,466.1,259.6,466.1z"/>
		<path style="fill:#35A8DF;" d="M146.6,248.2c-21.2-21.9-32.9-50.9-32.9-81.4c0-64.6,52.6-117.2,117.2-117.2
			c30.6,0,59.6,11.7,81.5,33c23,22.3,35.7,52.1,35.7,84.2c0,8,6.5,14.5,14.5,14.5s14.5-6.5,14.5-14.5c0-32,12.7-61.9,35.7-84.2
			c22-21.3,50.9-33,81.5-33c64.6,0,117.2,52.6,117.2,117.2c0,30.6-11.7,59.5-32.9,81.4l-14.1,14.1c-20.3-11.3-43-17.2-66.3-17.2
			c-3.3,0-6.7,0.1-10.1,0.4c-32.1,2.4-62.4,16.1-85.3,38.6c-20.1,19.7-33.6,45.2-38.6,72.7c-20.7,4.1-39,17.1-49.4,35.9
			c-2.9,5.3-5.2,11-6.7,16.8L146.6,248.2z"/>
		<path style="fill:#FFFFFF;" d="M377.8,471c-3.6,0-7.2-0.5-10.7-1.4c-0.7-0.2-1.3-0.4-2-0.6c-10.2-3.1-18.9-9.9-24.4-19.1
			c-1.8-2.9-3.2-6.2-4.2-9.6c-3.4-11.2-2.2-23.5,3.5-33.7c7.5-13.5,21.7-22,37.1-22.3c7.4-0.1,13.5-5.8,14.2-13.1
			c2.4-25.2,13.6-48.8,31.7-66.6c18.1-17.7,41.9-28.5,67.2-30.4c2.6-0.2,5.3-0.3,7.9-0.3c21.6,0,42.4,6.4,60.3,18.6l0.4,0.3
			c0.8,0.5,1.5,1,2.3,1.6c20.5,14.9,35.1,36.6,41.2,61.2c1.4,5.9,6.4,10.2,12.3,10.9c18,2.1,33.3,13.2,41.1,29.5
			c7.8,16.3,6.6,35.2-3,50.5c-9.7,15.3-26.2,24.4-44.3,24.4c0,0-229.7,0-229.7,0L377.8,471z"/>
		<path style="fill:#FBFFFF;" d="M99.2,270.1h-39C27,270.1,0,243.1,0,209.9s27-60.2,60.2-60.2c11.2,0,20.3,9.1,20.3,20.3
			c0,11.2-9.1,20.3-20.3,20.3c-10.8,0-19.6,8.8-19.6,19.6s8.8,19.6,19.6,19.6h39c11.2,0,20.3,9.1,20.3,20.3S110.4,270.1,99.2,270.1z
			"/>
	</g>
</g>
<g id="5">
	<g>
		<path style="fill:#0B9ADC;" d="M296.2,456.8L296.2,456.8c-18.9-18.9-18.9-49.5,0-68.4l34.2-34.2l34.2,34.2
			c18.9,18.9,18.9,49.5,0,68.4l0,0C345.7,475.7,315.1,475.7,296.2,456.8z"/>
		<path style="fill:#0B9ADC;" d="M177.5,371.5L177.5,371.5c-18.9-18.9-18.9-49.5,0-68.4l34.2-34.2l34.2,34.2
			c18.9,18.9,18.9,49.5,0,68.4l0,0C226.9,390.3,196.3,390.3,177.5,371.5z"/>
		<path style="fill:#0B9ADC;" d="M408.3,371.5L408.3,371.5c-18.9-18.9-18.9-49.5,0-68.4l34.2-34.2l34.2,34.2
			c18.9,18.9,18.9,49.5,0,68.4l0,0C457.8,390.3,427.2,390.3,408.3,371.5z"/>
		<g>
			<path style="fill:#85C2E1;" d="M161.2,155.7c-16.6-17.2-25.8-39.9-25.8-63.8c0-50.6,41.2-91.8,91.8-91.8c24,0,46.7,9.2,63.9,25.9
				c18,17.4,28,40.9,28,66c0,6.3,5.1,11.4,11.4,11.4s11.4-5.1,11.4-11.4c0-25.1,9.9-48.5,27.9-66C386.9,9.2,409.6,0,433.6,0
				c50.6,0,91.8,41.2,91.8,91.8c0,18.1-5.2,35.4-15,50.3c-2.2-3.4-4.8-6.6-7.7-9.5l-34.2-34.2c-2.1-2.1-5-3.3-8-3.3
				c-3,0-5.9,1.2-8,3.3l-34.2,34.2c-11.3,11.3-17.5,26.3-17.5,42.2s6.2,30.9,17.5,42.2c3.4,3.4,7.1,6.3,11.2,8.8l-99.1,99.1
				L161.2,155.7z"/>
			<path style="fill:#0B9ADC;" d="M460.6,211.8c-2.9,0-5.7-0.3-8.5-1c-6.7-1.6-12.8-5-17.7-9.8c-7-7-10.8-16.3-10.8-26.1
				c0-9.9,3.8-19.2,10.8-26.1l26.1-26.1l26.1,26.1c4.9,4.9,8.3,11,9.8,17.7c2.9,12.6-0.7,25.5-9.8,34.6
				C479.7,207.9,470.4,211.8,460.6,211.8C460.6,211.8,460.6,211.8,460.6,211.8z"/>
		</g>
	</g>
</g>
<g id="4">
	<g>
		<path style="fill:#9C9A9B;" d="M173.8,168c-18-18.6-27.9-43-27.9-68.9c0-54.7,44.5-99.1,99.1-99.1c25.9,0,50.4,9.9,69,27.9
			c19.5,18.8,30.2,44.1,30.2,71.2c0,6.8,5.5,12.3,12.3,12.3c6.8,0,12.3-5.5,12.3-12.3c0-27.1,10.7-52.4,30.2-71.2
			C417.5,9.9,442,0,467.9,0C522.5,0,567,44.5,567,99.1c0,25.9-9.9,50.3-27.9,68.9L356.5,350.7L173.8,168z"/>
		<path style="fill:#0B9ADC;" d="M107.9,360.1c-6.6,0-13.2-2.5-18.2-7.5c-10.1-10.1-10.1-26.3,0-36.4l78.6-78.6
			c10.1-10.1,26.3-10.1,36.4,0c10.1,10.1,10.1,26.3,0,36.4l-78.6,78.6C121.1,357.6,114.5,360.1,107.9,360.1z"/>
		<path style="fill:#0B9ADC;" d="M160.5,418.3c-6.6,0-13.2-2.5-18.2-7.5c-10.1-10.1-10.1-26.3,0-36.4l78.6-78.6
			c10.1-10.1,26.3-10.1,36.4,0c10.1,10.1,10.1,26.3,0,36.4l-78.6,78.6C173.7,415.8,167.1,418.3,160.5,418.3z"/>
		<path style="fill:#0B9ADC;" d="M218.8,471c-6.6,0-13.2-2.5-18.2-7.5c-10.1-10.1-10.1-26.3,0-36.4l78.6-78.6
			c10.1-10.1,26.3-10.1,36.4,0c10.1,10.1,10.1,26.3,0,36.4L237,463.5C232,468.5,225.4,471,218.8,471z"/>
		<path style="fill:#0B9ADC;" d="M430.7,401.4c-6.6,0-13.2-2.5-18.2-7.5c-10.1-10.1-10.1-26.3,0-36.4l122.1-122.1
			c10.1-10.1,26.3-10.1,36.4,0c10.1,10.1,10.1,26.3,0,36.4L448.9,393.8C443.9,398.9,437.3,401.4,430.7,401.4z"/>
	</g>
</g>
<g id="3">
	<g>
		<path style="fill:#85C2E1;" d="M157.2,161.1c-17-17.6-26.4-40.8-26.4-65.3c0-51.8,42.2-94,94-94c24.6,0,47.8,9.4,65.4,26.5
			C308.6,46,318.8,70,318.8,95.7c0,6.4,5.2,11.6,11.6,11.6s11.6-5.2,11.6-11.6c0-25.7,10.2-49.7,28.6-67.5
			c17.6-17.1,40.9-26.5,65.4-26.5c51.8,0,94,42.2,94,94c0,24.5-9.4,47.7-26.4,65.3L330.4,334.3L157.2,161.1z"/>
		<circle style="fill:#256B9F;" cx="373.7" cy="379.8" r="26.4"/>
		<circle style="fill:#0B9ADC;" cx="441.7" cy="314.1" r="26.4"/>
		<circle style="fill:#256B9F;" cx="508.8" cy="379.8" r="26.4"/>
		<circle style="fill:#24B2F2;" cx="441.7" cy="444.6" r="26.4"/>
		<circle style="fill:#256B9F;" cx="287.1" cy="379.8" r="26.4"/>
		<circle style="fill:#0B9ADC;" cx="219.1" cy="314.1" r="26.4"/>
		<circle style="fill:#256B9F;" cx="152" cy="379.8" r="26.4"/>
		<circle style="fill:#24B2F2;" cx="219.1" cy="444.6" r="26.4"/>
	</g>
</g>
<g id="2">
	<g>
		<path style="fill:#868686;" d="M545.4,103.8c0,26.4-10.1,51.4-28.5,70.4l-62.4,62.4h-37.6l10-10c9.7-9.7,15-22.6,15-36.3
			c0-13.7-5.3-26.6-15-36.3c-9.7-9.7-22.6-15-36.3-15s-26.6,5.3-36.3,15L239,269.4l-95.2-95.2c-18.4-19-28.5-44-28.5-70.4
			C115.4,48,160.8,2.5,216.6,2.5c26.5,0,51.5,10.1,70.4,28.5c19.9,19.2,30.8,45.1,30.8,72.7c0,6.9,5.6,12.5,12.5,12.5
			c6.9,0,12.5-5.6,12.5-12.5c0-27.7,10.9-53.5,30.8-72.7c19-18.4,44-28.5,70.4-28.5C500,2.5,545.4,48,545.4,103.8z"/>
		<path style="fill:#256B9F;" d="M445,442.5c-14.5,0-26.3-11.8-26.3-26.3v-69.9c0-14.5,11.8-26.3,26.3-26.3s26.3,11.8,26.3,26.3
			v69.9C471.2,430.7,459.5,442.5,445,442.5z"/>
		<path style="fill:#256B9F;" d="M203.1,471c-14.5,0-26.3-11.8-26.3-26.3v-69.9c0-14.5,11.8-26.3,26.3-26.3s26.3,11.8,26.3,26.3
			v69.9C229.4,459.2,217.6,471,203.1,471z"/>
		<path style="fill:#0B9ADC;" d="M145.9,322.6L145.9,322.6c-14.3-14.3-14.3-37.5,0-51.8l25.9-25.9l25.9,25.9
			c14.3,14.3,14.3,37.5,0,51.8l0,0C183.5,337,160.3,337,145.9,322.6z"/>
		<path style="fill:#0B9ADC;" d="M473,309.6L473,309.6c-14.3-14.3-14.3-37.5,0-51.8l25.9-25.9l25.9,25.9c14.3,14.3,14.3,37.5,0,51.8
			l0,0C510.6,324,487.4,324,473,309.6z"/>
		<path style="fill:#F6F126;" d="M281.8,423.1c-6.7,0-13.5-2.6-18.6-7.7c-10.3-10.3-10.3-26.9,0-37.2l64.1-64.1h-97.6l142.5-142.5
			c10.3-10.3,26.9-10.3,37.2,0c10.3,10.3,10.3,26.9,0,37.2l-52.7,52.7h97.6L300.4,415.4C295.2,420.6,288.5,423.1,281.8,423.1z"/>
	</g>
</g>
<g id="1">
	<g>
		<path style="fill:#868686;" d="M138.4,179.2c-18.9-19.5-29.3-45.2-29.3-72.4c0-57.5,46.8-104.2,104.2-104.2
			c27.2,0,53,10.4,72.5,29.4c20.5,19.8,31.7,46.4,31.7,74.9c0,7.1,5.8,12.9,12.9,12.9c7.1,0,12.9-5.8,12.9-12.9
			c0-28.5,11.3-55.1,31.7-74.9C394.5,13,420.3,2.5,447.5,2.5c57.5,0,104.2,46.8,104.2,104.2c0,27.2-10.4,52.9-29.3,72.4l-192,192
			L138.4,179.2z"/>
		<circle style="fill:#FFFFFF;" cx="564.6" cy="244.5" r="29.3"/>
		<circle style="fill:#FFFFFF;" cx="564.6" cy="430.7" r="29.3"/>
		<circle style="fill:#FFFFFF;" cx="482.8" cy="337.6" r="29.3"/>
		<circle style="fill:#FFFFFF;" cx="96.2" cy="244.5" r="29.3"/>
		<circle style="fill:#FFFFFF;" cx="96.2" cy="430.7" r="29.3"/>
		<circle style="fill:#FFFFFF;" cx="178" cy="337.6" r="29.3"/>
		<path style="fill:#C4DAEF;" d="M284.4,430.7c-22.3,0-40.3,18.1-40.3,40.3c0-22.3-18.1-40.3-40.3-40.3c22.3,0,40.3-18.1,40.3-40.3
			C244.1,412.6,262.1,430.7,284.4,430.7z"/>
		<path style="fill:#C4DAEF;" d="M457.1,430.7c-22.3,0-40.3,18.1-40.3,40.3c0-22.3-18.1-40.3-40.3-40.3c22.3,0,40.3-18.1,40.3-40.3
			C416.7,412.6,434.8,430.7,457.1,430.7z"/>
	</g>
</g>
<g id="0">
	<g>
		<path style="fill:#FFFFFF;" d="M151.5,164.5c-17.6-18.2-27.3-42.1-27.3-67.5c0-53.5,43.5-97.1,97.1-97.1
			c25.4,0,49.3,9.7,67.5,27.3c19.1,18.4,29.5,43.2,29.5,69.7c0,6.6,5.4,12,12,12s12-5.4,12-12c0-26.5,10.5-51.3,29.5-69.7
			C390.1,9.7,414.1,0,439.5,0c53.5,0,97.1,43.5,97.1,97.1c0,25.3-9.7,49.3-27.3,67.5L330.4,343.4L151.5,164.5z"/>
		<g>
			<path style="fill:#FFFFFF;" d="M244.1,313.7l-13.8-3.7l13.6-7.9c2.3-1.3,3.1-4.3,1.8-6.6c-1.3-2.3-4.3-3.1-6.6-1.8l-13.9,8.1
				l3.7-13.9c0.7-2.6-0.8-5.2-3.4-5.9s-5.2,0.8-5.9,3.4l-6.2,23.2l-14.6,8.5v-17.3l16.9-16.9c1.9-1.9,1.9-4.9,0-6.8
				c-1.9-1.9-4.9-1.9-6.8,0l-10.1,10.1v-15.8c0-2.7-2.1-4.8-4.8-4.8s-4.8,2.1-4.8,4.8v16.1l-10.2-10.2c-1.9-1.9-4.9-1.9-6.8,0
				c-1.9,1.9-1.9,4.9,0,6.8l16.9,16.9v16.9l-14.9-8.6l-6.2-23c-0.7-2.6-3.3-4.1-5.9-3.4c-2.6,0.7-4.1,3.3-3.4,5.9l3.7,13.8
				l-13.6-7.9c-2.3-1.3-5.2-0.5-6.6,1.8c-1.3,2.3-0.5,5.2,1.8,6.6l13.9,8.1l-13.9,3.7c-2.6,0.7-4.1,3.3-3.4,5.9
				c0.6,2.1,2.5,3.6,4.6,3.6c0.4,0,0.8-0.1,1.2-0.2l23.2-6.2l14.6,8.5l-14.9,8.6l-23-6.2c-2.6-0.7-5.2,0.8-5.9,3.4
				c-0.7,2.6,0.8,5.2,3.4,5.9l13.8,3.7l-13.6,7.9c-2.3,1.3-3.1,4.3-1.8,6.6c0.9,1.5,2.5,2.4,4.2,2.4c0.8,0,1.6-0.2,2.4-0.6l13.9-8.1
				l-3.7,13.9c-0.7,2.6,0.8,5.2,3.4,5.9c0.4,0.1,0.8,0.2,1.2,0.2c2.1,0,4.1-1.4,4.6-3.6l6.2-23.2l14.6-8.5V351l-16.9,16.9
				c-1.9,1.9-1.9,4.9,0,6.8c0.9,0.9,2.2,1.4,3.4,1.4s2.5-0.5,3.4-1.4l10.1-10.1v15.8c0,2.7,2.1,4.8,4.8,4.8s4.8-2.1,4.8-4.8v-16.1
				l10.2,10.2c1.9,1.9,4.9,1.9,6.8,0c1.9-1.9,1.9-4.9,0-6.8l-16.9-16.9v-16.9l15,8.6l6.2,23c0.6,2.1,2.5,3.6,4.6,3.6
				c0.4,0,0.8-0.1,1.2-0.2c2.6-0.7,4.1-3.3,3.4-5.9l-3.7-13.8l13.6,7.9c0.8,0.4,1.6,0.6,2.4,0.6c1.7,0,3.3-0.9,4.2-2.4
				c1.3-2.3,0.5-5.2-1.8-6.6l-13.9-8.1l13.9-3.7c2.6-0.7,4.1-3.3,3.4-5.9c-0.7-2.6-3.3-4.1-5.9-3.4l-23.2,6.2l-14.6-8.5l14.9-8.6
				l23,6.2c0.4,0.1,0.8,0.2,1.2,0.2c2.1,0,4.1-1.4,4.6-3.6C248.2,317,246.7,314.4,244.1,313.7z"/>
			<path style="fill:#FFFFFF;" d="M521.3,331.3c-0.7-2.6-3.3-4.1-5.9-3.4l-23,6.2l-14.9-8.6l14.6-8.5l23.2,6.2
				c0.4,0.1,0.8,0.2,1.2,0.2c2.1,0,4.1-1.4,4.6-3.6c0.7-2.6-0.8-5.2-3.4-5.9l-13.9-3.7l13.9-8.1c2.3-1.3,3.1-4.3,1.8-6.6
				c-1.3-2.3-4.3-3.1-6.6-1.8l-13.6,7.9l3.7-13.8c0.7-2.6-0.8-5.2-3.4-5.9c-2.6-0.7-5.2,0.8-5.9,3.4l-6.2,23l-14.9,8.6v-16.9
				l16.9-16.9c1.9-1.9,1.9-4.9,0-6.8c-1.9-1.9-4.9-1.9-6.8,0l-10.2,10.2v-16.1c0-2.7-2.1-4.8-4.8-4.8c-2.7,0-4.8,2.1-4.8,4.8v15.8
				L453,276.2c-1.9-1.9-4.9-1.9-6.8,0c-1.9,1.9-1.9,4.9,0,6.8l16.9,16.9v17.3l-14.6-8.5l-6.2-23.2c-0.7-2.6-3.3-4.1-5.9-3.4
				c-2.6,0.7-4.1,3.3-3.4,5.9l3.7,13.9l-13.9-8.1c-2.3-1.3-5.2-0.5-6.6,1.8c-1.3,2.3-0.5,5.2,1.8,6.6l13.6,7.9l-13.8,3.7
				c-2.6,0.7-4.1,3.3-3.4,5.9c0.6,2.1,2.5,3.6,4.6,3.6c0.4,0,0.8-0.1,1.2-0.2l23-6.2l14.9,8.6l-14.6,8.5l-23.2-6.2
				c-2.6-0.7-5.2,0.8-5.9,3.4c-0.7,2.6,0.8,5.2,3.4,5.9l13.9,3.7l-13.9,8.1c-2.3,1.3-3.1,4.3-1.8,6.6c0.9,1.5,2.5,2.4,4.2,2.4
				c0.8,0,1.6-0.2,2.4-0.6l13.6-7.9l-3.7,13.8c-0.7,2.6,0.8,5.2,3.4,5.9c0.4,0.1,0.8,0.2,1.2,0.2c2.1,0,4.1-1.4,4.6-3.6l6.2-23
				l15-8.6v16.9l-16.9,16.9c-1.9,1.9-1.9,4.9,0,6.8c1.9,1.9,4.9,1.9,6.8,0l10.2-10.2v16.1c0,2.7,2.1,4.8,4.8,4.8
				c2.7,0,4.8-2.1,4.8-4.8v-15.8l10.1,10.1c0.9,0.9,2.2,1.4,3.4,1.4s2.5-0.5,3.4-1.4c1.9-1.9,1.9-4.9,0-6.8L472.7,351v-17.3
				l14.6,8.5l6.2,23.2c0.6,2.1,2.5,3.6,4.6,3.6c0.4,0,0.8-0.1,1.2-0.2c2.6-0.7,4.1-3.3,3.4-5.9l-3.7-13.9l13.9,8.1
				c0.8,0.4,1.6,0.6,2.4,0.6c1.7,0,3.3-0.9,4.2-2.4c1.3-2.3,0.5-5.2-1.8-6.6l-13.6-7.9l13.8-3.7C520.5,336.5,522,333.9,521.3,331.3z
				"/>
			<path style="fill:#FFFFFF;" d="M381,399.6l-13.8-3.7l13.6-7.9c2.3-1.3,3.1-4.3,1.8-6.6c-1.3-2.3-4.3-3.1-6.6-1.8l-13.9,8.1
				l3.7-13.9c0.7-2.6-0.8-5.2-3.4-5.9c-2.6-0.7-5.2,0.8-5.9,3.4l-6.2,23.2l-14.6,8.5v-17.3l16.9-16.9c1.9-1.9,1.9-4.9,0-6.8
				s-4.9-1.9-6.8,0l-10.1,10.1v-15.8c0-2.7-2.1-4.8-4.8-4.8s-4.8,2.1-4.8,4.8v16.1L316,362.3c-1.9-1.9-4.9-1.9-6.8,0
				c-1.9,1.9-1.9,4.9,0,6.8l16.9,16.9V403l-14.9-8.6l-6.2-23c-0.7-2.6-3.3-4.1-5.9-3.4c-2.6,0.7-4.1,3.3-3.4,5.9l3.7,13.8l-13.6-7.9
				c-2.3-1.3-5.2-0.5-6.6,1.8c-1.3,2.3-0.5,5.2,1.8,6.6L295,396l-13.9,3.7c-2.6,0.7-4.1,3.3-3.4,5.9c0.6,2.1,2.5,3.6,4.6,3.6
				c0.4,0,0.8-0.1,1.2-0.2l23.2-6.2l14.6,8.5l-14.9,8.6l-23-6.2c-2.6-0.7-5.2,0.8-5.9,3.4c-0.7,2.6,0.8,5.2,3.4,5.9l13.8,3.7
				l-13.6,7.9c-2.3,1.3-3.1,4.3-1.8,6.6c0.9,1.5,2.5,2.4,4.2,2.4c0.8,0,1.6-0.2,2.4-0.6l13.9-8.1l-3.7,13.9
				c-0.7,2.6,0.8,5.2,3.4,5.9c0.4,0.1,0.8,0.2,1.2,0.2c2.1,0,4.1-1.4,4.6-3.6l6.2-23.2l14.6-8.5v17.3l-16.9,16.9
				c-1.9,1.9-1.9,4.9,0,6.8c0.9,0.9,2.2,1.4,3.4,1.4s2.5-0.5,3.4-1.4l10.1-10.1v15.8c0,2.7,2.1,4.8,4.8,4.8s4.8-2.1,4.8-4.8v-16.1
				l10.2,10.2c1.9,1.9,4.9,1.9,6.8,0c1.9-1.9,1.9-4.9,0-6.8l-16.9-16.9v-16.9l15,8.6l6.2,23c0.6,2.1,2.5,3.6,4.6,3.6
				c0.4,0,0.8-0.1,1.2-0.2c2.6-0.7,4.1-3.3,3.4-5.9l-3.7-13.8l13.6,7.9c0.8,0.4,1.6,0.6,2.4,0.6c1.7,0,3.3-0.9,4.2-2.4
				c1.3-2.3,0.5-5.2-1.8-6.6l-13.9-8.1l13.9-3.7c2.6-0.7,4.1-3.3,3.4-5.9c-0.7-2.6-3.3-4.1-5.9-3.4l-23.2,6.2l-14.6-8.5l14.9-8.6
				l23,6.2c0.4,0.1,0.8,0.2,1.2,0.2c2.1,0,4.1-1.4,4.6-3.6C385.1,402.9,383.6,400.2,381,399.6z"/>
		</g>
	</g>
</g>
</svg>
