<?xml version="1.0" encoding="utf-8"?>
<!-- Generator: Adobe Illustrator 24.3.0, SVG Export Plug-In . SVG Version: 6.00 Build 0)  -->
<svg version="1.1" id="Capa_1" xmlns="http://www.w3.org/2000/svg" xmlns:xlink="http://www.w3.org/1999/xlink" x="0px" y="0px"
	 viewBox="0 0 300 300" style="enable-background:new 0 0 300 300;" xml:space="preserve">
<g>
	<path style="fill:#D2CBC3;" d="M265.5,193.3c-1.4-3.8-3.3-7.4-5.7-10.6c-2.6-3.6-8.3-3-10,1.2c-2.6,6.2-6.4,12-11.2,16.9
		l-27.5,27.5c-2.3,2.3-5.9,2.3-8.2,0l-0.5-0.5l-0.5-0.5c-2.3-2.3-2.3-5.9,0-8.2l27.4-27.4c6.2-6.4,10.1-14.3,11.4-22.9
		c0.4-3,0.6-6,0.4-9c-0.6-10.7-5.2-20.3-12.3-27.4c-7.1-7.1-16.7-11.7-27.4-12.3c-2.9-0.2-5.8-0.1-8.6,0.3c-4.5,0.6-8.9,2-12.9,4
		c-3.8,1.9-7.4,4.4-10.5,7.5c-2.1,2-4.3,4.7-6.2,7.3c-1.7,2.3-1.5,5.6,0.5,7.6L175,158l1,1c2.3,2.3,2.3,5.9,0,8.2l-1,1
		c-2.3,2.3-5.9,2.3-8.2,0l-4.1-4.1l-26.6-26.6l-0.1-0.1c0,0,0,0,0,0l0.1,0.1c-0.4-0.4-1.2-1.3-2.2-2.3c-0.1-0.1-0.2-0.2-0.3-0.3
		c-0.4-0.4-0.8-0.8-1.1-1.2c-0.6-0.6-1.3-1.3-1.8-1.8c-3.2-3.1-6.7-5.6-10.6-7.5c-4-2-8.4-3.4-12.9-4c-2-0.3-4-0.4-6-0.4
		c-0.8,0-1.7,0-2.6,0.1c-21.4,1.2-38.5,18.3-39.7,39.7c0,0.7-0.1,1.3-0.1,2c0,1.5-0.6,3-1.7,4.1l-0.5,0.5l-1.2,1.2l-2.5,2.5
		l-3.1,3.1c-0.2,0.2-0.4,0.4-0.6,0.5c-0.6,0.5-1.3,1-1.9,1.5c-5.7,4.8-10.1,11-12.8,18.2c-4,10.8-3.5,22.5,1.4,32.9
		c4.8,10.4,13.5,18.4,24.3,22.3c10.6,3.9,22,3.5,32.3-1.1c1.2-0.5,2.4-1.1,3.5-1.8c3.3-1.9,3.9-6.4,1.2-9.1l-41.7-41.7
		c-2.3-2.3-2.3-5.9,0-8.2l0.5-0.5l0.5-0.5c2.3-2.3,5.9-2.3,8.2,0l46.2,46.2l4.7,4.7l4.7,4.7l2.5,2.5c0.1,0.1,0.2,0.1,0.2,0.2
		l11.8,11.8c8.4,8.4,22.1,8.4,30.5,0l11.7-11.7c0.1-0.1,0.2-0.2,0.3-0.3l2.5-2.5l4.7-4.7l0,0c2.4-2.4,6.2-2.2,8.5,0.3
		c0.1,0.1,0.1,0.1,0.2,0.2c1.5,1.6,3,3.1,4.7,4.4c2.9,2.4,6.1,4.4,9.7,5.9c10.3,4.6,21.8,5,32.3,1.1c10.8-4,19.4-11.9,24.3-22.3
		C269,215.8,269.4,204.1,265.5,193.3z"/>
	<path style="fill:#D2CBC3;" d="M117.4,109.5c0,0,0.1,0,0.1,0c2.7,0.9,5.7-0.2,7.3-2.6c5.3-8.3,14.6-13.7,25.2-13.7
		c10.5,0,19.8,5.5,25.2,13.7c1.6,2.4,4.5,3.5,7.3,2.6c0,0,0.1,0,0.1,0c4-1.2,5.9-6,3.6-9.6c-7.6-11.9-21-19.8-36.1-19.8
		c-15.1,0-28.5,7.9-36.1,19.8C111.6,103.5,113.4,108.2,117.4,109.5z"/>
	<path style="fill:#D2CBC3;" d="M149.9,74.1h0.1c3.6,0,6.4-2.9,6.4-6.4V44.3c0-3.6-2.9-6.4-6.4-6.4h-0.1c-3.6,0-6.4,2.9-6.4,6.4
		v23.4C143.5,71.2,146.4,74.1,149.9,74.1z"/>
	<path style="fill:#D2CBC3;" d="M106.2,88.5c2.5,2.5,6.6,2.5,9.1,0l0.1-0.1c2.5-2.5,2.5-6.6,0-9.1L98.9,62.8c-2.5-2.5-6.6-2.5-9.1,0
		l-0.1,0.1c-2.5,2.5-2.5,6.6,0,9.1L106.2,88.5z"/>
	<path style="fill:#D2CBC3;" d="M184.7,88.5c2.5,2.5,6.6,2.5,9.1,0L210.3,72c2.5-2.5,2.5-6.6,0-9.1l-0.1-0.1c-2.5-2.5-6.6-2.5-9.1,0
		l-16.5,16.5C182.1,81.8,182.1,85.9,184.7,88.5L184.7,88.5z"/>
</g>
</svg>
